<svg width="287" height="225" viewBox="0 0 287 225" fill="none" xmlns="http://www.w3.org/2000/svg">
<path d="M185.799 215.7H170.599C168.999 215.7 167.699 214.4 167.699 212.8V197.6C167.699 196 168.999 194.7 170.599 194.7H185.799C187.399 194.7 188.699 196 188.699 197.6V212.8C188.799 214.4 187.499 215.7 185.799 215.7Z" fill="#5DB3FA" stroke="#0B0033" stroke-width="5" stroke-miterlimit="10"/>
<path d="M31.9009 153.4H16.7008C15.1008 153.4 13.8008 152.1 13.8008 150.5V135.3C13.8008 133.7 15.1008 132.4 16.7008 132.4H31.9009C33.5009 132.4 34.8008 133.7 34.8008 135.3V150.5C34.9008 152 33.5009 153.4 31.9009 153.4Z" fill="#FFDA00" stroke="#0B0033" stroke-width="5" stroke-miterlimit="10"/>
<path d="M60.3008 93.0996C69.7008 108 81.7009 123.7 96.0009 139.3" stroke="#0B0033" stroke-width="5" stroke-miterlimit="10"/>
<path d="M188.799 211.9C213.199 223.4 233.199 225.7 242.999 215.8C262.599 196.2 234.099 135.7 179.199 80.9002C124.299 26.0002 63.8991 -2.59977 44.2991 17.1002C35.1991 26.2002 36.4992 44.1002 45.8992 66.2002" stroke="#0B0033" stroke-width="5" stroke-miterlimit="10"/>
<path d="M95.9004 139.3C99.8004 143.5 103.8 147.8 108 152C127.9 171.9 148.5 188.3 167.6 200.2" stroke="#0B0033" stroke-width="5" stroke-miterlimit="10"/>
<path d="M228.6 11C206.6 9.00002 170.2 26.8 133.1 57.9" stroke="#9CFFD9" stroke-width="5" stroke-miterlimit="10"/>
<path d="M108 80.9004C53.0999 135.8 24.4998 196.2 44.1998 215.8C62.2998 233.9 115.3 211 166.5 164.1C170.7 160.2 175 156.2 179.2 152C228.7 102.5 256.8 48.4004 247.4 23.9004" stroke="#9CFFD9" stroke-width="5" stroke-miterlimit="10"/>
<path d="M13.7 135.7C6.79995 129.8 3 123.3 3 116.5C3 88.7002 65.9 66.2002 143.5 66.2002C221.1 66.2002 284 88.7002 284 116.5C284 139.6 240.4 159.1 181.1 165" stroke="#0B0033" stroke-width="5" stroke-miterlimit="10"/>
<path d="M143.6 166.7C137.7 166.7 131.8 166.6 126.1 166.3C89.4003 164.7 57.2004 158 34.9004 148.3" stroke="#0B0033" stroke-width="5" stroke-miterlimit="10"/>
<path d="M151.399 96.7002H124.199V123.9H151.399V96.7002Z" fill="#5DB3FA"/>
<path d="M127 123.9C124.8 123.9 123 122.1 123 119.9V99.4004C123 97.2004 124.8 95.4004 127 95.4004H147.5C149.7 95.4004 151.5 97.2004 151.5 99.4004" stroke="#0B0033" stroke-width="5" stroke-miterlimit="10"/>
<path d="M160.5 137H140C137.8 137 136 135.2 136 133V112.5C136 110.3 137.8 108.5 140 108.5H160.5C162.7 108.5 164.5 110.3 164.5 112.5V133C164.4 135.3 162.6 137 160.5 137Z" fill="#FFDA00" stroke="#0B0033" stroke-width="5" stroke-miterlimit="10"/>
<path d="M246.799 24H231.599C229.999 24 228.699 22.7 228.699 21.1V5.89999C228.699 4.29999 229.999 3 231.599 3H246.799C248.399 3 249.699 4.29999 249.699 5.89999V21.1C249.799 22.6 248.499 24 246.799 24Z" fill="#FFDA00" stroke="#0B0033" stroke-width="5" stroke-miterlimit="10"/>
</svg>
