<svg width="45" height="33" viewBox="0 0 45 33" fill="none" xmlns="http://www.w3.org/2000/svg">
<rect width="45" height="32.4" rx="4" fill="#0060AF"/>
<path fill-rule="evenodd" clip-rule="evenodd" d="M10.2552 19.3036C10.2552 18.8687 10.2602 17.7064 10.2489 17.5632C10.2587 15.8337 8.93534 14.6137 8.09928 14.7088C7.52076 14.7565 7.03581 14.9807 6.77558 15.6255C6.53419 16.2265 6.75001 17.0258 7.55222 17.2134C8.40991 17.4148 8.91091 17.5824 9.2734 17.8189C9.71757 18.1083 10.0802 18.6614 10.0898 19.3043" fill="white"/>
<path fill-rule="evenodd" clip-rule="evenodd" d="M9.8972 19.3053C9.89999 18.7479 9.57259 18.255 9.14467 17.9901C8.7651 17.7561 8.25551 17.6023 7.43343 17.4041C7.17931 17.3424 6.91349 17.2052 6.8312 17.0303C6.61352 17.2387 6.57398 17.7073 6.61228 17.9812C6.65679 18.298 7.04651 18.8203 7.63331 18.8407C7.99166 18.8544 8.44473 18.7675 8.662 18.7236C9.03681 18.6467 9.62983 18.8697 9.72423 19.3046" fill="white"/>
<path fill-rule="evenodd" clip-rule="evenodd" d="M10.5581 12.0132C9.56302 12.0132 8.70367 12.6367 8.70667 13.7155C8.70978 14.6228 9.47762 15.1085 9.75172 15.4554C10.1658 15.9782 10.3899 16.5969 10.4131 17.5437C10.4313 18.2972 10.4303 19.0413 10.4344 19.305H10.6539C10.6502 19.0291 10.6403 18.2392 10.6515 17.5204C10.6664 16.5733 10.8986 15.9782 11.3129 15.4554C11.5893 15.1085 12.3565 14.6228 12.3581 13.7155C12.362 12.6367 11.5029 12.0132 10.5089 12.0132" fill="white"/>
<path fill-rule="evenodd" clip-rule="evenodd" d="M10.811 19.3036C10.811 18.8687 10.8058 17.7064 10.8169 17.5632C10.8072 15.8337 12.1298 14.6137 12.9665 14.7088C13.5451 14.7565 14.0294 14.9807 14.2904 15.6255C14.5315 16.2265 14.3146 17.0258 13.5134 17.2134C12.6551 17.4148 12.1548 17.5824 11.7914 17.8189C11.3477 18.1083 11.0105 18.6614 11.0001 19.3043" fill="white"/>
<path fill-rule="evenodd" clip-rule="evenodd" d="M11.1693 19.3053C11.1662 18.7479 11.4935 18.255 11.9202 17.9901C12.3014 17.7561 12.8115 17.6023 13.6329 17.4041C13.8875 17.3424 14.153 17.2052 14.2339 17.0303C14.4526 17.2387 14.4921 17.7073 14.4537 17.9812C14.4084 18.298 14.0196 18.8203 13.4338 18.8407C13.0757 18.8544 12.6201 18.7675 12.4038 18.7236C12.0304 18.6467 11.4358 18.8697 11.341 19.3046" fill="white"/>
<path fill-rule="evenodd" clip-rule="evenodd" d="M11.476 21.1039L11.3488 20.2212L11.6561 20.1769C11.7308 20.1673 11.8219 20.1796 11.8583 20.2241C11.8986 20.2706 11.9109 20.3091 11.9187 20.3701C11.9304 20.4456 11.9074 20.5327 11.818 20.5762V20.5789C11.9178 20.5789 11.9781 20.647 11.9957 20.7621C11.9982 20.7865 12.0058 20.8451 11.9982 20.8941C11.9779 21.0107 11.9048 21.0482 11.7812 21.0647L11.476 21.1039ZM11.6731 20.9457C11.7096 20.9407 11.7465 20.9388 11.7754 20.9213C11.8197 20.8939 11.8157 20.8353 11.8095 20.7916C11.7941 20.6959 11.7678 20.6594 11.6609 20.6744L11.5936 20.6843L11.6363 20.9505L11.6731 20.9457ZM11.6093 20.5374C11.6499 20.5312 11.705 20.5265 11.728 20.4898C11.7401 20.4653 11.7554 20.4458 11.7453 20.3913C11.7328 20.3268 11.7103 20.2867 11.6239 20.3022L11.5434 20.3145L11.5752 20.5407L11.6093 20.5374Z" fill="white"/>
<path fill-rule="evenodd" clip-rule="evenodd" d="M12.8075 20.5731C12.8098 20.5895 12.8126 20.6078 12.8137 20.6243C12.8385 20.7852 12.8075 20.9185 12.617 20.9552C12.3353 21.0067 12.2814 20.8405 12.2319 20.6078L12.2055 20.4818C12.1667 20.2592 12.1501 20.0907 12.4246 20.0386C12.5793 20.0119 12.6816 20.0704 12.7241 20.2168C12.7308 20.2386 12.739 20.2601 12.7421 20.2822L12.5737 20.3152C12.5543 20.2601 12.5285 20.1619 12.4527 20.1701C12.3167 20.1858 12.3616 20.3465 12.3756 20.4138L12.4262 20.6554C12.4414 20.7285 12.4717 20.8453 12.5894 20.8227C12.6849 20.8045 12.6432 20.6631 12.6347 20.6051" fill="white"/>
<path fill-rule="evenodd" clip-rule="evenodd" d="M13.0772 20.8402L13.019 19.9267L13.2452 19.8611L13.7196 20.6556L13.5415 20.7063L13.429 20.5043L13.2312 20.5608L13.2568 20.7904L13.0772 20.8402ZM13.2142 20.414L13.3571 20.3747L13.1673 20.0051L13.2142 20.414Z" fill="white"/>
<path fill-rule="evenodd" clip-rule="evenodd" d="M7.48875 20.15C7.55955 19.9347 7.6229 19.7761 7.89317 19.8465C8.03778 19.885 8.12742 19.9455 8.12317 20.1051C8.12245 20.1406 8.11013 20.1769 8.10206 20.2119L7.93385 20.1678C7.9559 20.0796 7.96987 20.0097 7.8556 19.9762C7.72352 19.9418 7.69132 20.0941 7.67311 20.1598L7.60469 20.3992C7.58295 20.4703 7.55686 20.5878 7.67311 20.6182C7.76916 20.6427 7.82734 20.5532 7.86212 20.4224L7.74453 20.3927L7.78521 20.2542L8.06189 20.3387L7.93054 20.8003L7.80322 20.7674L7.83189 20.6699H7.82827C7.76958 20.7497 7.69816 20.7581 7.63553 20.7466C7.35885 20.6756 7.38773 20.5037 7.45377 20.2742" fill="white"/>
<path fill-rule="evenodd" clip-rule="evenodd" d="M8.51906 20.5399L8.43573 20.9154L8.24817 20.877L8.44805 20.0001L8.76779 20.0687C8.95494 20.1071 9.01146 20.1862 8.98496 20.3493C8.96985 20.4428 8.9213 20.5435 8.80278 20.5354L8.80154 20.5339C8.90174 20.5672 8.91022 20.6152 8.89273 20.6982C8.88517 20.7336 8.83311 20.9478 8.86903 20.9824L8.87027 21.0088L8.67619 20.9606C8.66811 20.9013 8.69565 20.7945 8.70652 20.7352C8.71738 20.6829 8.73488 20.6091 8.67898 20.5815C8.6353 20.5593 8.61894 20.5604 8.56947 20.5496L8.51906 20.5399ZM8.55028 20.4027L8.67656 20.4351C8.75327 20.4457 8.79591 20.4079 8.81102 20.3198C8.82469 20.2391 8.80699 20.2076 8.73815 20.1919L8.60276 20.1658L8.55028 20.4027Z" fill="white"/>
<path fill-rule="evenodd" clip-rule="evenodd" d="M9.72221 20.1961L9.9077 20.2165L9.82779 20.833C9.78897 21.0284 9.70948 21.1138 9.4832 21.0872C9.25299 21.0594 9.19834 20.9599 9.21221 20.7629L9.29274 20.147L9.47968 20.1672L9.39946 20.7694C9.39087 20.8348 9.37503 20.9317 9.49738 20.9435C9.60597 20.9513 9.6306 20.8829 9.64292 20.7979" fill="white"/>
<path fill-rule="evenodd" clip-rule="evenodd" d="M10.1107 21.1216L10.1666 20.2401L10.5229 20.2548C10.6914 20.2627 10.7354 20.3934 10.7302 20.5181C10.7253 20.5939 10.7004 20.6786 10.6309 20.7245C10.5738 20.7636 10.5004 20.7728 10.4325 20.7697L10.3164 20.7636L10.2932 21.133L10.1107 21.1216ZM10.322 20.6286L10.4164 20.6336C10.4931 20.6363 10.5439 20.6075 10.5505 20.5005C10.5544 20.3978 10.5134 20.3803 10.414 20.3761L10.3393 20.3737L10.322 20.6286Z" fill="white"/>
<path fill-rule="evenodd" clip-rule="evenodd" d="M35.2473 12.8655L33.8309 15.3085C33.2962 14.8959 32.6435 14.5923 31.8105 14.5923C29.8394 14.5923 29.0386 15.9884 29.0386 16.9719C29.0386 17.702 29.5417 18.779 31.2956 18.779C32.0318 18.779 33.0783 18.2924 33.3796 18.0709L31.9787 20.9052C31.311 21.0318 31.0915 21.1103 30.5264 21.1269C27.3871 21.2159 26.1187 19.3834 26.1195 17.5111C26.1217 15.0357 28.4376 12.0254 32.2772 12.0254C32.5123 12.0254 32.8001 12.1028 33.0461 12.1885L33.2949 11.8862" fill="white"/>
<path fill-rule="evenodd" clip-rule="evenodd" d="M41.0916 11.963L41.4927 20.8418H38.5077L38.506 19.3191H36.4705L35.8006 20.8418H32.5632L35.9478 14.5016L35.1846 14.4969L36.6346 11.963H41.0916ZM38.486 14.6798L37.3353 17.2624H38.5208L38.486 14.6798Z" fill="white"/>
<path fill-rule="evenodd" clip-rule="evenodd" d="M24.2348 11.9627C25.7131 11.9706 26.5484 12.7331 26.5484 13.8344C26.5484 14.8498 25.6674 15.7485 24.7003 16.2132C25.696 16.5611 25.7821 17.4149 25.7821 18.0188C25.7821 19.4781 24.2413 20.8415 22.2382 20.8415H17.8698L19.5737 14.5896L18.8738 14.5858L20.3046 11.9627C20.3046 11.9627 23.0328 11.9549 24.2348 11.9627ZM22.7848 15.5617C23.0906 15.5617 23.6305 15.4881 23.7655 14.9258C23.9134 14.3153 23.4067 14.2989 23.1637 14.2989L22.2952 14.2953L21.9923 15.5617H22.7848ZM21.5571 17.1316L21.1573 18.5909H22.18C22.5822 18.5909 23.1305 18.401 23.2649 17.9262C23.3976 17.45 23.0143 17.1316 22.6135 17.1316H21.5571Z" fill="white"/>
<path fill-rule="evenodd" clip-rule="evenodd" d="M10.5981 21.9325C9.08553 21.9325 7.53121 21.5785 5.97886 20.8784L5.94077 20.8606L5.92255 20.8237C5.22592 19.4265 4.85742 17.8983 4.85742 16.4031C4.85742 14.91 5.21081 13.4472 5.90785 12.0518L5.9271 12.0147L5.96592 11.9962C7.40193 11.3498 8.94662 11.0225 10.5588 11.0225C12.0604 11.0225 13.6643 11.3869 15.1961 12.0783L15.2353 12.0949L15.2535 12.1327C15.9634 13.5557 16.3378 15.0836 16.3378 16.5542C16.3378 18.0188 15.9783 19.483 15.2675 20.9052L15.2489 20.9425L15.2093 20.9598C13.7952 21.5959 12.2006 21.9325 10.5981 21.9325ZM6.12217 20.6854C7.63011 21.3596 9.13423 21.6999 10.5978 21.6999C12.1496 21.6999 13.6929 21.3776 15.0668 20.7666C15.7492 19.3885 16.0951 17.9702 16.0951 16.5528C16.0951 15.1294 15.7341 13.6491 15.0511 12.2678C13.5646 11.6038 12.0121 11.2517 10.5584 11.2517C8.9977 11.2517 7.50166 11.5663 6.10912 12.1869C5.44065 13.5393 5.10041 14.9565 5.10041 16.4017C5.10041 17.8494 5.4539 19.3305 6.12217 20.6854Z" fill="white"/>
</svg>
