<svg width="45" height="33" viewBox="0 0 45 33" fill="none" xmlns="http://www.w3.org/2000/svg">
<rect width="45" height="32.4" rx="4" fill="#F5F7F9"/>
<mask id="mask0_2715_49408" style="mask-type:alpha" maskUnits="userSpaceOnUse" x="0" y="0" width="45" height="33">
<rect width="45" height="32.4" rx="4" fill="white"/>
</mask>
<g mask="url(#mask0_2715_49408)">
<path fill-rule="evenodd" clip-rule="evenodd" d="M21.2144 32.6365C21.2144 32.6365 13.8215 31.9885 8.35721 29.7205C2.70693 27.3753 7.00355e-05 24.8154 7.00355e-05 20.6485C7.00355e-05 10.9285 7.00355e-05 32.6365 7.00355e-05 32.6365H21.2144Z" fill="#165781"/>
</g>
<path fill-rule="evenodd" clip-rule="evenodd" d="M17.0404 8.75273L16.8096 9.89875C19.0849 9.88998 26.2431 7.22316 26.5756 5.63186C26.5756 5.63211 26.5975 5.52754 26.619 5.42297C26.6404 5.31832 26.6614 5.21375 26.6599 5.21375C23.559 7.32935 18.874 8.74822 17.0404 8.75273ZM16.6062 10.7304L16.3914 11.7856C18.5847 11.781 25.8246 9.10971 26.1571 7.51883L26.2489 7.06333C23.0422 9.31468 18.5513 10.6755 16.6062 10.7304ZM16.1385 12.6554L15.9158 13.7615L15.9171 13.8006C18.1349 13.7502 25.342 11.1234 25.6739 9.53456L25.7833 8.99025C23.2979 10.7419 18.1401 12.6663 16.1385 12.6554Z" fill="url(#paint0_linear_2715_49408)"/>
<path fill-rule="evenodd" clip-rule="evenodd" d="M5.1812 16.1891H6.01225V19.1322H6.03131C6.3274 18.6096 6.86219 18.2707 7.60731 18.2707C8.75376 18.2707 9.56506 19.2386 9.55524 20.6627C9.55524 22.3368 8.51471 23.1696 7.48283 23.1696C6.81415 23.1696 6.27918 22.908 5.93573 22.2886H5.90683L5.86937 23.0632H5.14307C5.16239 22.7434 5.1812 22.2686 5.1812 21.8529V16.1891ZM6.01221 21.1848C6.01221 21.2913 6.03127 21.3972 6.05059 21.4946C6.21279 22.0848 6.69971 22.492 7.31094 22.492C8.18961 22.492 8.71491 21.7656 8.71491 20.6908C8.71491 19.7517 8.23715 18.9479 7.33966 18.9479C6.76631 18.9479 6.2316 19.3451 6.0595 19.9942C6.04068 20.091 6.01221 20.2065 6.01221 20.3424V21.1848Z" fill="#165781"/>
<path fill-rule="evenodd" clip-rule="evenodd" d="M13.748 21.9394C13.748 22.3464 13.767 22.7431 13.8242 23.0628H13.0602L12.9932 22.472H12.9647C12.7064 22.8404 12.2096 23.1692 11.5513 23.1692C10.615 23.1692 10.1382 22.5016 10.1382 21.8239C10.1382 20.6904 11.1309 20.0706 12.9167 20.0811V19.9836C12.9167 19.5966 12.8119 18.8994 11.8666 18.8994C11.4362 18.8994 10.9879 19.0345 10.6628 19.2482L10.4715 18.6865C10.8537 18.4351 11.4084 18.2704 11.9903 18.2704C13.4041 18.2704 13.748 19.2482 13.748 20.187V21.9394ZM12.936 20.6709C12.0186 20.6513 10.978 20.8165 10.978 21.7261C10.978 22.2782 11.3408 22.5403 11.7703 22.5403C12.3723 22.5403 12.7541 22.1522 12.8878 21.7556C12.9165 21.6678 12.936 21.5714 12.936 21.4846V20.6709Z" fill="#165781"/>
<path fill-rule="evenodd" clip-rule="evenodd" d="M15.0374 19.6449C15.0374 19.1609 15.0272 18.7649 14.999 18.3768H15.7433L15.7915 19.1514H15.8106C16.0401 18.7066 16.5749 18.2704 17.339 18.2704C17.9781 18.2704 18.9717 18.6579 18.9717 20.2648V23.0629H18.131V20.3617C18.131 19.6062 17.8547 18.9768 17.0616 18.9768C16.5077 18.9768 16.0775 19.3743 15.9344 19.8487C15.8963 19.9547 15.8769 20.1002 15.8769 20.2463V23.0629H15.0374" fill="#165781"/>
<path fill-rule="evenodd" clip-rule="evenodd" d="M21.0349 20.5262H21.054C21.1685 20.3615 21.3306 20.1583 21.4649 19.9936L22.8209 18.3767H23.8331L22.0472 20.3038L24.081 23.0627H23.0597L21.4649 20.8169L21.0349 21.3008V23.0627H20.2036V16.1891H21.0349" fill="#165781"/>
<path fill-rule="evenodd" clip-rule="evenodd" d="M31.0059 18.5427C30.9746 18.5051 30.9435 18.4668 30.9103 18.4325C30.8562 18.3752 30.7957 18.3217 30.7312 18.2711C30.3836 17.983 29.9632 17.8134 29.5101 17.8134C29.0213 17.8134 28.5711 18.0124 28.2085 18.3437C28.198 18.3504 28.1888 18.358 28.1782 18.3637C28.1653 18.3708 28.1469 18.38 28.1255 18.3742C28.0659 18.3585 28.0023 18.294 28.0019 18.202V16.2859C28.0019 16.1656 27.9045 16.0682 27.7851 16.0682H26.8653C26.7453 16.0682 26.6486 16.1656 26.6486 16.2859V16.3521C26.6486 16.3551 26.6478 16.357 26.6478 16.3593V16.5818L26.6495 22.7591C26.6495 22.8817 26.7474 22.981 26.8679 22.981H27.7006C27.7536 22.981 27.8018 22.961 27.8395 22.9285C27.8411 22.9275 27.8428 22.9275 27.8436 22.9267C27.8449 22.9257 27.8452 22.9242 27.8461 22.9232C27.864 22.9075 27.8779 22.8884 27.8896 22.8679H27.8901C27.9045 22.8408 27.9141 22.8121 27.9172 22.7801C27.9339 22.6436 28.0255 22.5683 28.0824 22.5878C28.1019 22.594 28.1205 22.6035 28.1396 22.6174C28.1591 22.6297 28.1782 22.6426 28.197 22.655C28.2535 22.697 28.5016 22.8694 28.6939 22.9561C28.7909 22.9997 29.0997 23.106 29.4581 23.106C29.8169 23.106 30.0717 23.0255 30.1318 23.0091C30.1922 22.9929 30.2515 22.9725 30.3085 22.9457C30.5893 22.8236 30.8151 22.655 30.9866 22.4422C31.1563 22.2332 31.297 21.9855 31.4107 21.701C31.5802 21.3269 31.6766 20.8973 31.6766 20.4402C31.6766 19.6933 31.4187 19.0209 31.0059 18.5427ZM29.1067 22.1196C28.4327 22.1196 27.8861 21.3832 27.8861 20.476C27.8861 19.5683 28.4327 18.8324 29.1067 18.8324C29.7801 18.8324 30.3262 19.5683 30.3262 20.476C30.3262 21.3832 29.7801 22.1196 29.1067 22.1196Z" fill="#165781"/>
<path fill-rule="evenodd" clip-rule="evenodd" d="M33.3681 16.1239C33.2363 16.1258 33.1202 16.1559 33.0204 16.215C32.9228 16.2756 32.8467 16.3568 32.7928 16.456C32.7368 16.5573 32.709 16.6685 32.709 16.792C32.709 16.9113 32.7368 17.0192 32.7889 17.1185C32.8406 17.2173 32.9148 17.2965 33.0084 17.357C33.1044 17.4158 33.2162 17.4463 33.3443 17.4482C33.4881 17.4463 33.61 17.4158 33.7098 17.357C33.8097 17.2965 33.8853 17.2173 33.9374 17.1185C33.9894 17.0192 34.0151 16.9113 34.0151 16.792C34.0151 16.6685 33.9876 16.5573 33.9353 16.456C33.8836 16.3568 33.8077 16.2756 33.7115 16.215C33.6159 16.1559 33.5 16.1258 33.3681 16.1239" fill="#165781"/>
<path fill-rule="evenodd" clip-rule="evenodd" d="M34.0706 18.3634C34.0696 18.351 34.0685 18.3386 34.0675 18.3267V18.1629C34.0675 18.0399 33.9694 17.9401 33.8482 17.9401H32.9216C32.7999 17.9401 32.7015 18.0399 32.7015 18.1629V23.2255C32.6968 23.3543 32.5422 23.531 32.3633 23.5748C32.2809 23.6006 32.1986 23.6125 32.1152 23.6087C32.0323 23.6059 31.9755 23.6397 31.9431 23.7108C31.9306 23.7423 31.9215 23.7848 31.9142 23.8368C31.9086 23.8884 31.9157 24.431 31.9196 24.4758C31.923 24.5212 31.9306 24.5594 31.9431 24.5918C31.9815 24.65 32.0486 24.6886 32.1437 24.7082C32.1755 24.7216 32.7912 24.7231 33.2049 24.6214C33.3676 24.5818 33.498 24.5021 33.6069 24.4185C33.7143 24.3341 33.8103 24.2277 33.8937 24.0979C33.9894 23.9432 34.0417 23.748 34.0515 23.5123C34.0544 23.4412 34.0675 23.2556 34.0675 23.2336V18.634C34.0685 18.6092 34.0692 18.5844 34.0706 18.5576C34.0737 18.4931 34.0737 18.4283 34.0706 18.3634" fill="#165781"/>
<mask id="mask1_2715_49408" style="mask-type:alpha" maskUnits="userSpaceOnUse" x="35" y="16" width="6" height="8">
<path fill-rule="evenodd" clip-rule="evenodd" d="M40.1844 23.106V16.0682L35.1559 16.0682V23.106H40.1844V23.106Z" fill="white"/>
</mask>
<g mask="url(#mask1_2715_49408)">
<path fill-rule="evenodd" clip-rule="evenodd" d="M39.5136 18.5427C39.4828 18.5051 39.4518 18.4668 39.418 18.4325C39.3639 18.3752 39.3032 18.3217 39.2392 18.2711C38.8916 17.983 38.4712 17.8134 38.0178 17.8134C37.5293 17.8134 37.0795 18.0124 36.717 18.3437C36.7059 18.3504 36.6968 18.358 36.6858 18.3637C36.6731 18.3708 36.6554 18.38 36.6338 18.3742C36.5742 18.3585 36.5104 18.294 36.5094 18.202V16.2859C36.5094 16.1656 36.4124 16.0682 36.2932 16.0682H35.3736C35.2535 16.0682 35.1566 16.1656 35.1566 16.2859V16.3521C35.1566 16.3551 35.1559 16.357 35.1559 16.3593V16.5818L35.1571 22.7591C35.1571 22.8817 35.2552 22.981 35.3761 22.981H36.208C36.2616 22.981 36.3101 22.961 36.3479 22.9285C36.3491 22.9275 36.3501 22.9275 36.3513 22.9267C36.3526 22.9257 36.3531 22.9242 36.3544 22.9232C36.3713 22.9075 36.3862 22.8884 36.3978 22.8679L36.3983 22.8669C36.4124 22.8408 36.4221 22.8121 36.4251 22.7801C36.4419 22.6436 36.533 22.5683 36.5902 22.5878C36.6098 22.594 36.629 22.6035 36.6479 22.6174C36.6666 22.6297 36.6858 22.6426 36.7053 22.655C36.7613 22.697 37.0098 22.8694 37.2018 22.9561C37.2988 22.9997 37.6072 23.106 37.9664 23.106C38.3246 23.106 38.579 23.0255 38.6397 23.0091C38.7002 22.9929 38.7593 22.9725 38.8165 22.9457C39.0963 22.8236 39.323 22.655 39.4948 22.4422C39.6645 22.2332 39.8051 21.9855 39.9187 21.701C40.0879 21.3269 40.1844 20.8973 40.1844 20.4402C40.1844 19.6933 39.9262 19.0209 39.5136 18.5427ZM37.615 22.1196C36.941 22.1196 36.3947 21.3832 36.3947 20.476C36.3947 19.5683 36.941 18.8324 37.615 18.8324C38.2887 18.8324 38.8347 19.5683 38.8347 20.476C38.8347 21.3832 38.2887 22.1196 37.615 22.1196Z" fill="#165781"/>
</g>
<defs>
<linearGradient id="paint0_linear_2715_49408" x1="15.5042" y1="10.5808" x2="28.4728" y2="9.86198" gradientUnits="userSpaceOnUse">
<stop stop-color="#2BA7DF"/>
<stop offset="0.40625" stop-color="#175882"/>
<stop offset="1" stop-color="#EBC71B"/>
</linearGradient>
</defs>
</svg>
