<svg width="45" height="33" viewBox="0 0 45 33" fill="none" xmlns="http://www.w3.org/2000/svg">
<rect width="45" height="32.4" rx="4" fill="white"/>
<path fill-rule="evenodd" clip-rule="evenodd" d="M7.29766 19.2395L8.82483 21.1458H5.04382L7.29766 19.2395ZM6.81742 18.6507L3.85972 21.1516L3.85851 15.0007L6.81742 18.6507ZM13.9339 12.4571C13.9339 12.4571 13.2846 12.1472 12.5303 12.1925C11.6679 12.2437 10.9465 12.577 10.5317 13.0169C10.2708 13.2933 9.98225 13.6304 9.83733 13.9965C9.62717 14.5262 9.5823 15.226 9.5823 15.226C9.5823 15.226 9.28069 14.968 8.90281 14.2161C8.46344 13.3415 8.34326 12.8118 8.28372 12.2074C8.23072 11.677 8.31391 11.1526 8.31391 11.1526H13.9339V12.4571ZM13.9339 14.2008V18.0792C13.9339 18.0792 13.5845 18.2144 13.2995 18.2144C13.0145 18.2144 12.5292 18.1718 11.9655 17.8595C11.406 17.5496 11.0963 17.1748 10.8561 16.8351C10.6126 16.4896 10.4116 16.0107 10.3518 15.6655C10.3037 15.3894 10.252 14.7007 10.5317 14.141C10.6836 13.8372 11.091 13.3166 11.8755 13.287C12.515 13.2622 12.8696 13.4317 13.1946 13.6115C13.8131 13.9543 13.9339 14.2008 13.9339 14.2008ZM7.8144 17.8068L8.82811 16.9551C8.50504 16.5391 8.41966 16.3824 8.05852 15.8453C7.68876 15.2956 7.37903 14.6909 7.11417 13.9813C6.82749 13.2127 6.75824 12.7812 6.78989 12.2074C6.82955 11.4773 6.99423 11.1526 6.99423 11.1526H3.85706L3.85851 12.8569C3.85851 12.8569 6.25993 15.8904 7.8144 17.8068ZM10.7109 21.143H13.9339V18.7742C13.9339 18.7742 13.1345 19.1438 12.6148 19.1736C12.3055 19.1918 12.0052 19.2038 11.5207 19.0739C10.9821 18.9297 10.6762 18.7891 10.177 18.3741C9.77609 18.0412 9.31768 17.5496 9.31768 17.5496L8.29803 18.4066C8.77111 18.9899 9.12049 19.4144 9.22745 19.5287C9.68732 20.0186 9.8822 20.1986 10.1919 20.3732C10.5015 20.5481 11.536 20.5386 11.536 20.5386L10.7109 21.143Z" fill="#E94E0F"/>
<path fill-rule="evenodd" clip-rule="evenodd" d="M38.3097 19.0359C38.3097 19.7222 38.4015 20.8504 37.639 21.1251V21.1708H40.5352V21.1251C39.7731 20.8354 39.8646 19.7222 39.8646 19.0359V13.2872C39.8646 12.6012 39.7731 11.4728 40.5352 11.1831V11.1373H37.639V11.1831C38.4164 11.4728 38.3097 12.5859 38.3097 13.2872V19.0359ZM27.6898 13.2872L32.9185 19.9205C33.589 20.7894 34.0618 21.2929 35.1441 21.6586V13.1043C35.1441 12.2505 35.1441 11.6404 35.9369 11.1831V11.1373H33.2538V11.1831C34.0618 11.6404 34.0463 12.2505 34.0463 13.1043V18.8835L28.4674 11.8386L28.2538 11.5337C28.1473 11.4117 28.0864 11.3356 28.0254 11.1526V11.1373H25.7995V11.1831C26.5922 11.6404 26.5922 12.2505 26.5922 13.1043V19.1887C26.5922 20.0424 26.5922 20.6522 25.7845 21.1251V21.1708H28.4827V21.1251C27.6747 20.6522 27.6898 20.0424 27.6898 19.1887V13.2872ZM19.167 15.1782V12.1896L20.1881 12.0826C21.1028 11.9911 22.0782 12.5402 22.0782 13.5924C22.0782 14.8428 20.6606 15.1782 19.67 15.1782H19.167ZM19.167 19.9509V16.1844L20.2338 16.1235C21.5753 16.0472 23.0081 16.6879 23.0081 18.1669C23.0081 19.6155 21.7433 20.1949 20.493 20.073L19.167 19.9509ZM17.6119 19.0207C17.6119 19.7222 17.7035 20.8354 16.941 21.1251V21.1708H19.4563C20.5996 21.1708 21.8042 21.2167 22.871 20.6982C23.8923 20.2102 24.7004 19.2036 24.7004 18.0294C24.7004 16.5354 23.5873 15.6203 22.2154 15.3304C23.0844 14.9493 23.7397 14.3699 23.7397 13.3482C23.7397 11.9911 22.5662 11.1373 20.5542 11.1373H16.941V11.1831C17.7189 11.4728 17.6119 12.5859 17.6119 13.2719V19.0207Z" fill="#005B6A"/>
</svg>
