<svg width="45" height="33" viewBox="0 0 45 33" fill="none" xmlns="http://www.w3.org/2000/svg">
<rect width="45" height="32.4" rx="4" fill="#00529C"/>
<path fill-rule="evenodd" clip-rule="evenodd" d="M13.3403 14.0563H15.4851C16.3536 14.0563 17.0011 14.4436 17.0011 15.2591C17.0011 15.857 16.7009 16.1899 16.1795 16.3663V16.3798C16.801 16.5092 17.1217 16.849 17.1217 17.4262C17.1217 18.5612 16.1393 18.7988 15.3043 18.7988H13.3403V14.0563ZM14.5825 15.9316H14.9303C15.3378 15.9316 15.7589 15.8296 15.7589 15.4284C15.7589 14.9941 15.3579 14.953 14.9433 14.953H14.5825V15.9316ZM14.5825 17.902H14.9506C15.4045 17.902 15.8787 17.8339 15.8787 17.3515C15.8787 16.8355 15.3913 16.7875 14.9636 16.7875H14.5825V17.902Z" fill="white"/>
<path fill-rule="evenodd" clip-rule="evenodd" d="M18.7523 14.0563H20.2756L22.0729 18.7988H20.7098L20.3627 17.7867H18.6122L18.2446 18.7988H16.9819L18.7523 14.0563ZM19.5144 15.0346H19.5003L18.8994 16.8897H20.0685L19.5144 15.0346Z" fill="white"/>
<path fill-rule="evenodd" clip-rule="evenodd" d="M22.2461 14.0559H23.8294L25.4062 17.2767H25.4192L25.3995 14.0559H26.5356V18.7984H24.9922L23.3615 15.5575H23.3487L23.3885 18.7984H22.2461V14.0559Z" fill="white"/>
<path fill-rule="evenodd" clip-rule="evenodd" d="M26.9575 14.0559H28.2V15.9929H28.2134L29.616 14.0559H31.113L29.389 16.264L31.2466 18.7984H29.6627L28.2134 16.6447H28.2V18.7984H26.9575V14.0559Z" fill="white"/>
<path fill-rule="evenodd" clip-rule="evenodd" d="M32.7871 14.0563H34.9319C35.8002 14.0563 36.4485 14.4436 36.4485 15.2591C36.4485 15.857 36.1483 16.1899 35.6269 16.3663V16.3798C36.2482 16.5092 36.5689 16.849 36.5689 17.4262C36.5689 18.5612 35.5867 18.7988 34.7519 18.7988H32.7871V14.0563ZM34.0298 15.9316H34.3769C34.7846 15.9316 35.2052 15.8296 35.2052 15.4284C35.2052 14.9941 34.8048 14.953 34.3907 14.953H34.0298V15.9316ZM34.0298 17.902H34.3974C34.8513 17.902 35.326 17.8339 35.326 17.3515C35.326 16.8355 34.8383 16.7875 34.4107 16.7875H34.0298V17.902Z" fill="white"/>
<path fill-rule="evenodd" clip-rule="evenodd" d="M36.8442 14.0563H39.0624C39.8907 14.0563 40.5658 14.4366 40.5658 15.2525C40.5658 15.8843 40.2717 16.3055 39.6706 16.448V16.4615C40.0706 16.5704 40.0979 16.9303 40.3317 17.5079L40.7862 18.7988H39.4903L39.2229 17.9432C38.9689 17.1278 38.8084 16.9235 38.3474 16.9235H38.0867V18.7988H36.8442V14.0563ZM38.0864 16.0267H38.414C38.8148 16.0267 39.3228 16.0129 39.3228 15.4762C39.3228 15.0349 38.888 14.953 38.414 14.953H38.0864V16.0267Z" fill="white"/>
<mask id="mask0_2715_49304" style="mask-type:alpha" maskUnits="userSpaceOnUse" x="2" y="11" width="41" height="11">
<path fill-rule="evenodd" clip-rule="evenodd" d="M2.57129 21.1934H42.3707V11.6641H2.57129V21.1934Z" fill="white"/>
</mask>
<g mask="url(#mask0_2715_49304)">
<path fill-rule="evenodd" clip-rule="evenodd" d="M41.1284 18.7984H42.3709V14.0559H41.1284V18.7984Z" fill="white"/>
<path fill-rule="evenodd" clip-rule="evenodd" d="M10.5042 11.6639H4.00053C3.21112 11.6639 2.57117 12.3309 2.57117 13.1538V13.1695V19.7038C2.57117 20.5187 3.19932 21.1811 3.97857 21.1933H10.5007C11.2903 21.1933 11.9305 20.5263 11.9305 19.7038L11.9335 13.1538C11.9335 12.3309 11.2938 11.6639 10.5042 11.6639ZM4.77354 20.4298L4.41869 20.4337C3.98921 20.4337 3.64107 20.0749 3.64107 19.6321L3.63904 19.5691V13.5199L3.64127 13.1942C3.65734 12.7657 3.97742 12.4207 4.39673 12.4207H5.11802C5.7716 12.4207 6.30174 12.9988 6.30174 13.6808C6.30174 14.0179 6.1718 14.324 5.96133 14.5465L4.12098 16.4456L5.84582 18.2318C6.06829 18.4649 6.20271 18.7714 6.20271 19.107C6.20271 19.8377 5.56276 20.4298 4.77354 20.4298ZM10.0764 20.4238L6.86057 20.4223C6.86057 20.4223 7.2325 19.605 7.2325 19.0992C7.2325 18.4825 7.02955 17.9313 6.71212 17.5667L5.61218 16.4264L6.73489 15.2468C7.069 14.9272 7.29106 14.3602 7.29106 13.7143C7.29106 13.2029 7.15197 12.7498 6.92808 12.4207H7.70733C8.36111 12.4207 8.89125 12.9988 8.89125 13.6808C8.89125 14.0179 8.76151 14.324 8.55104 14.5465L6.74587 16.4258L10.4951 20.314C10.3763 20.3901 10.2265 20.4238 10.0764 20.4238ZM10.8621 19.2098L8.17517 16.4249L9.45487 15.1021C9.71557 14.771 9.88069 14.272 9.88069 13.7142C9.88069 13.1995 9.73956 12.7354 9.51364 12.4062L10.0865 12.4235C10.516 12.4235 10.8641 12.783 10.8641 13.2255L10.8621 19.2098Z" fill="white"/>
</g>
</svg>
