<svg width="224" height="197" viewBox="0 0 224 197" fill="none" xmlns="http://www.w3.org/2000/svg">
<path d="M80 171L6 96V120L80 194.5L218 56V34L80 171Z" fill="#5F5566"/>
<path d="M213.953 38.2059C219.228 32.9308 219.228 24.3781 213.953 19.1029L204.402 9.55148C199.127 4.27634 190.574 4.27634 185.299 9.55147L81.1878 113.662C80.6602 114.19 79.805 114.19 79.2775 113.662L38.2059 72.5909C32.9308 67.3157 24.3781 67.3157 19.1029 72.5909L9.55146 82.1424C4.27633 87.4175 4.27632 95.9702 9.55144 101.245L79.2773 170.971C79.8048 171.499 80.6601 171.499 81.1876 170.971L213.953 38.2059Z" fill="#FFDA00" stroke="#0B0033" stroke-width="5"/>
<path d="M5.71484 91.9184V114.531C5.71484 118.113 7.13798 121.549 9.67118 124.082L78.9136 193.325C79.4411 193.852 80.2964 193.852 80.8239 193.325L213.831 60.3173C216.365 57.7841 217.788 54.3483 217.788 50.7658V28.4316" stroke="#0B0033" stroke-width="5"/>
</svg>
