<svg width="45" height="33" viewBox="0 0 45 33" fill="none" xmlns="http://www.w3.org/2000/svg">
<rect width="45" height="32.4" rx="4" fill="#EE3124"/>
<path fill-rule="evenodd" clip-rule="evenodd" d="M3.85693 21.2531H14.1354V11.0167H3.85693V21.2531Z" fill="white"/>
<path fill-rule="evenodd" clip-rule="evenodd" d="M10.7082 12.9512H5.24609L7.66482 16.1346H13.1274L10.7082 12.9512Z" fill="#ED3124"/>
<path fill-rule="evenodd" clip-rule="evenodd" d="M13.1269 16.1343H7.66433L5.24561 19.3175H10.7077L13.1269 16.1343Z" fill="#820024"/>
<path fill-rule="evenodd" clip-rule="evenodd" d="M38.8792 18.2726H37.5474V16.6947H38.8792C39.5005 16.6947 39.7228 17.1003 39.7228 17.4795C39.7228 17.8632 39.5005 18.2726 38.8792 18.2726ZM37.5474 13.9958H38.7945C39.3177 13.9958 39.6293 14.2706 39.6293 14.7341C39.6293 15.196 39.3177 15.4707 38.7945 15.4707H37.5474V13.9958ZM40.1993 16.0497C40.4981 15.8864 40.9882 15.4266 40.9882 14.6777C40.9882 13.5081 40.187 12.7801 38.897 12.7801H36.1875V19.4875H39.011C40.288 19.4875 41.0819 18.7444 41.0819 17.5453C41.0819 16.6445 40.5511 16.2267 40.1993 16.0497ZM30.8962 17.0655C30.8451 16.9784 28.5174 12.7668 28.5174 12.7668H27.1875V19.4747H28.5465V15.4676C28.6499 15.6431 30.8962 19.529 30.8962 19.529C30.8962 19.529 33.1322 15.6436 33.2319 15.4686V19.4747H34.5923V12.7668H33.2631C33.2631 12.7668 30.9437 16.9784 30.8962 17.0655ZM24.1597 19.4875H25.5235V12.7801H24.1597V19.4875ZM21.9075 17.8714C21.5109 18.1868 21.0308 18.3527 20.5248 18.3527C19.296 18.3527 18.3404 17.3786 18.3404 16.1342C18.3404 14.8895 19.296 13.9147 20.5248 13.9147C21.0308 13.9147 21.5109 14.0808 21.9075 14.3967L21.9264 14.4116L22.874 13.4684L22.8525 13.4484C22.2041 12.8904 21.379 12.5825 20.5248 12.5825C18.5368 12.5825 16.9194 14.1761 16.9194 16.1342C16.9194 18.0918 18.5368 19.6848 20.5248 19.6848C21.379 19.6848 22.2041 19.3777 22.8525 18.8197L22.874 18.7987L21.9264 17.8565L21.9075 17.8714Z" fill="white"/>
</svg>
