<svg width="45" height="33" viewBox="0 0 45 33" fill="none" xmlns="http://www.w3.org/2000/svg">
<rect width="45" height="32.4" rx="4" fill="white"/>
<path fill-rule="evenodd" clip-rule="evenodd" d="M5.15571 16.607H5.75404C6.09818 16.607 6.37425 16.6342 6.67873 16.9874C6.89224 17.2298 7.12945 17.7708 7.12945 18.6414C7.12945 18.9557 7.13417 19.265 7.07565 19.5836C6.97889 20.0872 6.74827 20.8914 5.42633 20.8914C5.07378 20.8914 5.15571 20.8824 5.15571 20.8824V16.607ZM5.83732 21.6343C7.6155 21.6343 8.41281 20.8381 8.41281 18.6642C8.41281 18.0889 8.24406 17.126 7.70897 16.5373C7.15705 15.9346 6.44378 15.8579 5.8388 15.8579H3.85693V21.6343H5.83732Z" fill="#004F38"/>
<path fill-rule="evenodd" clip-rule="evenodd" d="M11.4532 20.1389C11.4532 20.3299 11.4447 20.5869 11.2448 20.77C11.0745 20.9199 10.8369 20.9322 10.743 20.9322C10.5183 20.9322 10.3175 20.8496 10.2306 20.5717C10.2088 20.4823 10.1992 20.3932 10.1992 20.3072C10.1992 19.8851 10.4782 19.7074 10.7889 19.6328C10.9529 19.5956 11.0607 19.5868 11.4532 19.5544V20.1389ZM11.453 19.0329L10.8045 19.0964C10.1038 19.1788 9.83905 19.2422 9.53852 19.4407C9.05654 19.7701 9.05029 20.2513 9.05029 20.41C9.05029 20.8038 9.16858 21.1015 9.33119 21.2732C9.54621 21.5228 9.88558 21.6151 10.214 21.6151C11.0183 21.6151 11.4018 21.2486 11.4018 21.2486L11.4098 21.5097H12.4912V18.7764C12.4912 18.468 12.4999 18.0374 12.1474 17.7304C11.9645 17.571 11.8026 17.4992 11.5549 17.4624C11.3061 17.4191 11.2184 17.4016 10.9787 17.4016C10.2478 17.4016 9.69496 17.5294 9.37926 18.0913C9.24358 18.3342 9.2533 18.5778 9.2533 18.764H10.2478C10.2559 18.6016 10.2624 18.3772 10.3911 18.2208C10.4552 18.1318 10.6055 18.0054 10.8829 18.0054C10.9732 18.0054 11.2374 18.0054 11.3716 18.2243C11.4446 18.3541 11.453 18.5239 11.453 18.7147V19.0329Z" fill="#004F38"/>
<path fill-rule="evenodd" clip-rule="evenodd" d="M20.089 20.1389C20.089 20.3299 20.0813 20.5869 19.8787 20.77C19.7136 20.9199 19.4731 20.9322 19.3767 20.9322C19.153 20.9322 18.9522 20.8496 18.8667 20.5717C18.8442 20.4823 18.8369 20.3932 18.8369 20.3072C18.8369 19.8851 19.1134 19.7074 19.4259 19.6328C19.5899 19.5956 19.6975 19.5868 20.089 19.5544V20.1389ZM20.0888 19.0329L19.4409 19.0964C18.7377 19.1788 18.4765 19.2422 18.1743 19.4407C17.6945 19.7701 17.686 20.2513 17.686 20.41C17.686 20.8038 17.8043 21.1015 17.9658 21.2732C18.1823 21.5228 18.5241 21.6151 18.8509 21.6151C19.6559 21.6151 20.0385 21.2486 20.0385 21.2486L20.045 21.5097H21.1271V18.7764C21.1271 18.468 21.1343 18.0374 20.7847 17.7304C20.601 17.571 20.4365 17.4992 20.1906 17.4624C19.9425 17.4191 19.8556 17.4016 19.6144 17.4016C18.8832 17.4016 18.3307 17.5294 18.0164 18.0913C17.8803 18.3342 17.8894 18.5778 17.8894 18.764H18.8832C18.8924 18.6016 18.8992 18.3772 19.0273 18.2208C19.0891 18.1318 19.2397 18.0054 19.5202 18.0054C19.6094 18.0054 19.8737 18.0054 20.0098 18.2243C20.0811 18.3541 20.0888 18.5239 20.0888 18.7147V19.0329Z" fill="#004F38"/>
<path fill-rule="evenodd" clip-rule="evenodd" d="M36.4298 21.5094H35.2991V19.0635C35.2991 18.9056 35.2991 18.7763 35.2834 18.6426C35.2751 18.5149 35.2358 18.0983 34.7433 18.0983C34.6124 18.0983 34.5017 18.1315 34.4305 18.161C34.0968 18.3156 34.0888 18.5864 34.0815 18.8031V21.5094H32.9463V17.5057H34.0815V17.9617C34.3675 17.7059 34.624 17.4265 35.2591 17.4265C35.7938 17.4265 36.0582 17.6333 36.1674 17.761C36.4196 18.0441 36.4196 18.4124 36.4298 18.6998V21.5094Z" fill="#004F38"/>
<path fill-rule="evenodd" clip-rule="evenodd" d="M16.8559 21.5094H15.7242V19.0635C15.7242 18.9056 15.7242 18.7763 15.706 18.6426C15.6995 18.5149 15.6601 18.0983 15.1618 18.0983C15.0374 18.0983 14.9257 18.1315 14.8548 18.161C14.5194 18.3156 14.5099 18.5864 14.5027 18.8031V21.5094H13.3682V17.5057H14.5027V17.9617C14.7915 17.7059 15.0454 17.4265 15.6823 17.4265C16.2182 17.4265 16.4798 17.6333 16.5914 17.761C16.8464 18.0441 16.8464 18.4124 16.8559 18.6998V21.5094Z" fill="#004F38"/>
<path fill-rule="evenodd" clip-rule="evenodd" d="M21.9561 17.5038H23.0909V17.9701C23.3078 17.7737 23.6908 17.4221 24.3729 17.4221C25.1503 17.4221 25.3667 17.8887 25.4209 18.0401C25.883 17.5923 26.1885 17.4221 26.6333 17.4221C26.8495 17.4221 27.0001 17.458 27.1441 17.5106C27.7524 17.7444 27.7673 18.2897 27.777 18.642V21.5057H26.6265V18.8981C26.6193 18.6136 26.6112 18.455 26.5358 18.3284C26.5232 18.2964 26.4097 18.0958 26.124 18.0958C26.0277 18.0958 25.8426 18.1196 25.7549 18.1684C25.4395 18.3212 25.4267 18.5829 25.4209 18.7976V21.5057H24.2965V18.9136C24.2965 18.6065 24.3021 18.0958 23.7876 18.0958C23.6737 18.0958 23.4722 18.1286 23.3726 18.1844C23.0909 18.3591 23.0829 18.6136 23.0909 18.9699V21.5057H21.9561V17.5038Z" fill="#004F38"/>
<path fill-rule="evenodd" clip-rule="evenodd" d="M31.1238 19.4203C31.1238 19.6496 31.1147 19.8658 31.0922 20.0874C31.0681 20.307 31.0311 20.751 30.6903 20.938C30.5924 20.9848 30.4898 21.0094 30.384 21.0094C29.7411 21.0094 29.6836 20.3342 29.6692 20.0874C29.6548 19.9029 29.644 19.7213 29.644 19.5424C29.644 19.383 29.6548 19.1607 29.6786 18.8985C29.7015 18.6865 29.7471 18.2801 30.0747 18.0889C30.1871 18.0324 30.2948 18.0087 30.4192 18.0087C31.0311 18.0087 31.0852 18.6495 31.0998 18.8985C31.1147 19.0734 31.1238 19.2502 31.1238 19.4203ZM32.2794 19.441C32.2794 19.087 32.2794 18.4226 31.8872 17.9702C31.41 17.4019 30.7283 17.4019 30.4896 17.4019C30.2095 17.4019 29.5664 17.4135 29.0627 17.8708C28.4922 18.3828 28.4922 19.1955 28.4922 19.6084C28.4922 20.3903 28.6679 21.2185 29.6547 21.506C29.9419 21.5953 30.0953 21.6096 30.3838 21.6096C30.6555 21.6096 31.3307 21.6096 31.8331 21.0488C32.2794 20.5547 32.2794 19.81 32.2794 19.441Z" fill="#004F38"/>
<path fill-rule="evenodd" clip-rule="evenodd" d="M3.85693 7.77527V10.5229H9.75748V9.02655L3.85693 7.77527Z" fill="#F15B22"/>
<path fill-rule="evenodd" clip-rule="evenodd" d="M16.8157 10.5229L9.75635 7.77527L9.7578 9.02655L16.8157 10.5229Z" fill="#FFC222"/>
<path fill-rule="evenodd" clip-rule="evenodd" d="M9.75635 10.5227H16.813L9.75635 9.02637V10.5227Z" fill="#F7931D"/>
<path fill-rule="evenodd" clip-rule="evenodd" d="M16.814 10.5204V10.5229L31.6372 13.6684V10.5204H16.814Z" fill="#F15B22"/>
<path fill-rule="evenodd" clip-rule="evenodd" d="M41.1423 15.6852V10.5204H31.6377V13.6696L41.1423 15.6852Z" fill="#F7931D"/>
<path fill-rule="evenodd" clip-rule="evenodd" d="M31.6369 13.6692L16.8169 10.5236L31.6369 15.6872V13.6692Z" fill="#FFC222"/>
</svg>
