<svg width="45" height="33" viewBox="0 0 45 33" fill="none" xmlns="http://www.w3.org/2000/svg">
<rect width="45" height="32.4" rx="4" fill="#108EE9"/>
<path fill-rule="evenodd" clip-rule="evenodd" d="M9.71325 11.016H9.56325C8.31675 11.0425 7.089 11.5452 6.18375 12.4101C5.1225 13.4004 4.5135 14.8436 4.5 16.2982V16.4335C4.5255 17.8578 5.11725 19.2677 6.14775 20.2475C7.0605 21.1366 8.3115 21.6544 9.58125 21.6756H9.72825C11.4443 21.6559 13.0958 20.6875 13.9883 19.2156C14.7518 17.9954 14.9865 16.4607 14.6475 15.0613C14.3633 13.854 13.6463 12.754 12.6533 12.0192C11.8095 11.3842 10.7655 11.0356 9.71325 11.016ZM7.383 15.3471C7.8675 15.49 8.38425 15.4031 8.856 15.2496C9.11596 15.1632 9.37187 15.0645 9.62778 14.9657L9.6278 14.9657C10.0415 14.806 10.4553 14.6464 10.8863 14.539C11.463 14.4029 12.111 14.5125 12.573 14.8981C12.6644 14.9865 12.6642 15.1144 12.664 15.2357C12.664 15.2656 12.6639 15.2952 12.6652 15.3237C12.6601 15.714 12.6619 16.1044 12.6638 16.4947C12.6665 17.07 12.6692 17.6452 12.6495 18.2199C12.5799 18.1901 12.5106 18.1584 12.4413 18.1266C12.1558 17.996 11.8688 17.8646 11.5477 17.8585C10.8783 17.8214 10.2594 18.0454 9.63934 18.2698L9.63934 18.2698L9.63933 18.2698C9.1348 18.4524 8.62949 18.6353 8.0955 18.6781C7.611 18.7121 7.10475 18.5964 6.71175 18.3023C6.63124 18.19 6.63526 18.0494 6.63919 17.9118C6.64079 17.8558 6.64237 17.8003 6.63825 17.7474C6.64571 17.3981 6.64241 17.0481 6.6391 16.6981C6.63377 16.1338 6.62844 15.5695 6.66825 15.0077C6.75665 15.0474 6.84172 15.0946 6.92675 15.1418L6.92676 15.1418C7.0733 15.2232 7.21974 15.3045 7.383 15.3471ZM17.5507 13.6709H17.5506H17.5506H17.5506H17.5506C17.2853 13.6726 17.0201 13.6742 16.755 13.6711C16.7546 14.5684 16.7546 15.466 16.7546 16.3637C16.7546 17.2613 16.7546 18.1591 16.7542 19.0568C17.0497 19.0572 17.345 19.0572 17.6402 19.0572C17.9356 19.0572 18.231 19.0572 18.5265 19.0576C18.9562 19.0583 19.3905 18.9752 19.7745 18.7748C20.796 18.2698 21.3877 17.0557 21.192 15.93C21.03 14.7582 20.0145 13.7625 18.8347 13.6832C18.4069 13.6654 17.9787 13.6681 17.5507 13.6709ZM17.8713 17.4576C17.8735 16.5815 17.8757 15.7054 17.868 14.8293C17.9826 14.8328 18.0978 14.8308 18.2132 14.8288C18.4655 14.8243 18.7182 14.8199 18.9653 14.8739C19.581 15.016 20.0557 15.5943 20.0992 16.2263C20.1645 16.8553 19.8022 17.5047 19.2262 17.7618C18.914 17.9105 18.5709 17.9033 18.2313 17.8961C18.11 17.8936 17.9891 17.891 17.8702 17.8956L17.8713 17.4576ZM23.1765 15.8491C23.2125 14.6811 24.2557 13.6318 25.4287 13.6718C26.5785 13.6597 27.588 14.6864 27.6337 15.8317C27.6457 16.4897 27.6439 17.148 27.642 17.8062V17.8069V17.8069V17.807C27.6408 18.2231 27.6397 18.6393 27.642 19.0553L27.6415 19.0553H27.6412H27.6409H27.6407C27.2684 19.0561 26.8968 19.0568 26.5252 19.0553C26.5234 18.8625 26.5236 18.6697 26.5238 18.477V18.477V18.477V18.4769C26.5239 18.2843 26.5241 18.0917 26.5222 17.8994C26.0837 17.9016 25.6454 17.9012 25.2072 17.9008H25.2072H25.2071H25.2071C24.9004 17.9005 24.5938 17.9003 24.2872 17.9009C24.2861 18.0446 24.2867 18.1884 24.2872 18.3323V18.3323V18.3323V18.3323V18.3325C24.2881 18.5752 24.2891 18.8181 24.282 19.0606C24.0345 19.0545 23.7874 19.0552 23.5403 19.0559H23.5402C23.4167 19.0562 23.2932 19.0566 23.1698 19.0561C23.1711 18.6673 23.1701 18.2785 23.1691 17.8897C23.1673 17.2093 23.1655 16.5289 23.1765 15.8491ZM24.573 15.2156C24.2686 15.5471 24.2775 15.9944 24.286 16.4231V16.4232V16.4232V16.4233C24.2882 16.5322 24.2903 16.6399 24.2872 16.7442C24.5848 16.7445 24.8825 16.7443 25.1802 16.7441H25.1802H25.1803H25.1812C25.6283 16.7439 26.0754 16.7436 26.5222 16.745C26.5195 16.6411 26.5219 16.5339 26.5243 16.4255L26.5243 16.4253C26.5336 16.0063 26.5433 15.5699 26.2568 15.239C25.857 14.7098 24.987 14.6977 24.573 15.2156ZM29.5957 15.8612C29.6287 14.833 30.426 13.879 31.4377 13.7058C32.1907 13.5599 32.9977 13.8586 33.4882 14.4497C33.8677 14.8708 34.0612 15.4409 34.0612 16.0063C34.0627 16.6842 34.0622 17.3617 34.0617 18.0393V18.0393C34.0615 18.3782 34.0612 18.7171 34.0612 19.0561C33.9348 19.0568 33.8082 19.0564 33.6816 19.0559H33.6815H33.6814C33.4372 19.055 33.193 19.0541 32.949 19.0621C32.9409 18.4861 32.9422 17.9098 32.9435 17.3336V17.333C32.9445 16.89 32.9455 16.447 32.9422 16.0041C32.9482 15.5928 32.73 15.1831 32.373 14.9789C32.0025 14.7552 31.5007 14.7884 31.161 15.0576C30.867 15.2791 30.7027 15.648 30.708 16.0154C30.7063 16.5941 30.7065 17.1725 30.7068 17.751V17.7527C30.707 18.1871 30.7071 18.6215 30.7065 19.0561C30.5704 19.0555 30.4343 19.0558 30.2982 19.056C30.0601 19.0564 29.8219 19.0569 29.5837 19.053C29.5917 18.5402 29.5902 18.0271 29.5888 17.5141C29.5872 16.9631 29.5857 16.412 29.5957 15.8612ZM36.3728 14.7151C36.804 14.0377 37.6005 13.6008 38.4053 13.6779C39.315 13.7346 40.122 14.4331 40.374 15.3063C40.467 15.6011 40.4714 15.909 40.4759 16.2167V16.2167V16.2168C40.4784 16.3928 40.4809 16.5687 40.5 16.7419V19.05C40.2143 19.0579 39.9286 19.0569 39.6428 19.056H39.6428C39.5475 19.0556 39.4523 19.0553 39.357 19.0553C39.3565 18.9318 39.3567 18.8083 39.3569 18.6847V18.6826C39.3574 18.4202 39.3579 18.1577 39.3517 17.8956C38.8994 17.9025 38.4467 17.9016 37.9939 17.9006H37.9939C37.7028 17.9 37.4116 17.8994 37.1205 17.9009C37.1201 18.0933 37.1201 18.2857 37.1201 18.4782C37.1201 18.6707 37.1201 18.8633 37.1198 19.0561H36.0023C36.0019 18.5597 36.0019 18.0636 36.0019 17.5676C36.0019 17.0716 36.0019 16.5756 36.0015 16.0797C35.9963 15.6019 36.1095 15.1165 36.3728 14.7151ZM37.4002 15.2231C37.1018 15.5534 37.1107 15.9972 37.1192 16.4226C37.1214 16.5317 37.1236 16.6397 37.1205 16.7442C37.6173 16.7447 38.114 16.7445 38.6106 16.7444H38.6114L39.3563 16.7442C39.3529 16.6376 39.3553 16.5275 39.3576 16.4162C39.3665 15.9991 39.3757 15.5656 39.0885 15.2367C38.685 14.7068 37.8112 14.7 37.4002 15.2231Z" fill="white"/>
</svg>
