<svg width="45" height="33" viewBox="0 0 45 33" fill="none" xmlns="http://www.w3.org/2000/svg">
<rect width="45" height="32.4" rx="4" fill="white"/>
<path fill-rule="evenodd" clip-rule="evenodd" d="M7.25567 12.4075C7.68244 12.3374 8.1203 12.3455 8.54908 12.3887C8.94663 12.4715 9.3477 12.5639 9.7125 12.7493C10.4507 13.1043 11.079 13.6798 11.4977 14.3883C11.8448 15.0429 12.0837 15.7774 12.0479 16.5275C12.058 18.0674 11.0901 19.5347 9.71905 20.1894C8.83024 20.6155 7.79631 20.6739 6.84654 20.4403C6.20411 20.2412 5.58436 19.9192 5.11628 19.4245C4.67036 19.0075 4.33378 18.4763 4.12014 17.9044C3.84151 17.201 3.81632 16.4188 3.93472 15.6778C4.15138 14.5772 4.82605 13.568 5.78087 12.9829C6.22528 12.6878 6.73619 12.5126 7.25567 12.4075ZM6.6853 14.3837C6.36384 14.4167 6.01265 14.5305 5.83478 14.823C5.63829 15.1032 5.61778 15.4537 5.59831 15.7867L5.59343 15.8683C5.58943 15.9523 5.58199 16.0361 5.57455 16.12L5.57455 16.12C5.55954 16.2893 5.54452 16.4586 5.55766 16.6291C5.56745 16.7442 5.57436 16.8597 5.58128 16.9752C5.59855 17.2638 5.61583 17.5526 5.67808 17.8358C5.75517 18.1929 6.07412 18.4697 6.42581 18.5347C7.08127 18.6538 7.74899 18.6433 8.4127 18.6329L8.59493 18.6302C8.86652 18.6149 9.1381 18.587 9.40665 18.5438C9.80873 18.491 10.164 18.1609 10.23 17.7546C10.3453 17.2563 10.366 16.7424 10.3317 16.234C10.2672 15.9079 10.0385 15.6138 9.72761 15.4945C9.58755 15.4262 9.43219 15.4267 9.2798 15.4271C9.25293 15.4271 9.22615 15.4272 9.19957 15.4269C8.89982 15.4273 8.60007 15.4271 8.30034 15.4269C7.77582 15.4267 7.25137 15.4264 6.72712 15.4289C6.66685 15.4301 6.61061 15.4093 6.55486 15.3887C6.53417 15.3811 6.51356 15.3734 6.49283 15.367C6.49131 15.2532 6.49535 15.0831 6.64701 15.08C7.04191 15.071 7.43719 15.0737 7.83244 15.0763H7.83245C8.35301 15.0798 8.87352 15.0833 9.39305 15.0602C9.33662 14.7961 9.17689 14.5203 8.90179 14.4472C8.65338 14.3801 8.39641 14.3461 8.14095 14.3222C8.06809 14.3213 7.99512 14.3199 7.92209 14.3185L7.92208 14.3185C7.50825 14.3105 7.09259 14.3025 6.6853 14.3837ZM9.49886 16.6022C9.36634 16.5661 9.20763 16.6189 9.16127 16.7566C9.13218 16.915 9.1788 17.0677 9.22511 17.2193C9.24456 17.283 9.26396 17.3465 9.27767 17.4102C9.29279 17.4191 9.31549 17.4323 9.33818 17.4456C9.36083 17.4588 9.38349 17.4719 9.39859 17.4808C9.45049 17.4504 9.5034 17.4229 9.55832 17.3991C9.56425 17.265 9.59629 17.1361 9.62832 17.0072C9.64253 16.9501 9.65674 16.8929 9.66866 16.8353C9.64397 16.7403 9.582 16.6535 9.49886 16.6022Z" fill="#01ACD7"/>
<path fill-rule="evenodd" clip-rule="evenodd" d="M17.2245 13.6731C16.836 13.5198 16.4047 13.537 15.9976 13.5878C15.1168 13.7249 14.3439 14.4025 14.0829 15.2613C13.9645 15.6016 13.967 15.9688 13.9983 16.3238C14.1036 17.2319 14.7813 18.0293 15.6414 18.3071C16.251 18.493 16.9544 18.4991 17.5172 18.1665C17.5907 18.1255 17.6575 18.0748 17.7243 18.0242C17.7866 17.9769 17.8489 17.9296 17.9168 17.8902L17.9178 17.9374C17.9262 18.3117 17.9356 18.7351 17.6538 19.0177C17.4648 19.2503 17.1791 19.3727 16.8904 19.4174C16.2662 19.5327 15.6061 19.3178 15.142 18.8872C15.0389 18.9931 14.9308 19.0943 14.8227 19.1954L14.8227 19.1954C14.6479 19.3591 14.4731 19.5228 14.3192 19.7064C14.805 20.1696 15.4202 20.5038 16.0873 20.5927C16.7393 20.6754 17.4407 20.6353 18.0216 20.2976C18.5144 20.0218 18.9024 19.551 19.0545 19.0019C19.149 18.7284 19.1477 18.4361 19.1464 18.1502L19.1462 18.102C19.1457 16.5879 19.1457 15.0744 19.1462 13.5604C18.9101 13.5574 18.674 13.5576 18.4379 13.5577C18.2674 13.5578 18.0969 13.5579 17.9264 13.5568L17.927 13.6816C17.9277 13.8168 17.9284 13.9519 17.9254 14.0871C17.7153 13.9139 17.483 13.761 17.2245 13.6731ZM15.6771 14.9926C15.8792 14.8118 16.1472 14.7428 16.4087 14.7037C16.9292 14.6239 17.5147 14.8641 17.7813 15.3339C17.8887 15.5243 17.8843 15.7394 17.8798 15.9526C17.8783 16.0272 17.8768 16.1015 17.88 16.1745C17.9239 16.6225 17.5777 17.0176 17.1812 17.17C16.702 17.3518 16.111 17.364 15.6928 17.0283C15.066 16.5544 15.0534 15.4731 15.6771 14.9926ZM27.9295 13.5578C27.4085 13.5543 26.8654 13.7112 26.49 14.0901C26.4867 14.0417 26.4835 13.9933 26.4804 13.945L26.4804 13.9449L26.4804 13.9449L26.4804 13.9448L26.4804 13.9448C26.475 13.8615 26.4697 13.7784 26.4633 13.6955C26.0531 13.6904 25.643 13.6889 25.2329 13.6955C25.2334 14.949 25.2334 16.2024 25.2333 17.4559V17.4656C25.2332 18.4025 25.2332 19.3394 25.2334 20.2762C25.5216 20.295 25.8105 20.2933 26.0993 20.2917H26.0993H26.0993H26.0993H26.0994C26.2337 20.2909 26.3679 20.2902 26.5021 20.2915C26.5115 19.7107 26.5094 19.1296 26.5073 18.5485C26.5066 18.3501 26.5059 18.1516 26.5056 17.9531C27.4106 18.6779 28.8511 18.5982 29.6648 17.7667C30.5506 16.8713 30.6015 15.2755 29.7485 14.341C29.2995 13.8209 28.6102 13.5335 27.9295 13.5578ZM26.5651 15.4431C26.6976 15.0414 27.1027 14.8017 27.4962 14.723C27.9018 14.6402 28.3553 14.7433 28.6687 15.0216C29.1998 15.5082 29.2038 16.4432 28.703 16.9526C28.2006 17.4427 27.3118 17.4336 26.8125 16.9435C26.5998 16.754 26.4885 16.4574 26.5071 16.174C26.5113 16.0993 26.5093 16.0235 26.5073 15.9476C26.5028 15.7758 26.4983 15.6038 26.5651 15.4431ZM21.5537 13.6203C22.2697 13.4751 23.0532 13.5624 23.6764 13.9642C24.1506 14.2526 24.5113 14.7204 24.6726 15.2542C24.8938 15.9556 24.7945 16.7581 24.3803 17.3686C23.9687 17.9836 23.2658 18.3605 22.5402 18.4311C22.0933 18.4615 21.6313 18.4463 21.2085 18.2823C20.5082 18.0451 19.9207 17.4625 19.7141 16.7428C19.4924 16.0684 19.5952 15.2964 19.9751 14.6991C20.3268 14.1404 20.9163 13.759 21.5537 13.6203ZM21.8535 14.7296C21.6751 14.7809 21.5083 14.8702 21.3622 14.9845C20.8563 15.3863 20.7329 16.1806 21.0931 16.7185C21.5048 17.4026 22.5669 17.5377 23.1242 16.9648C23.3968 16.7124 23.5263 16.3355 23.49 15.9663C23.5207 15.1475 22.6198 14.4878 21.8535 14.7296ZM33.5496 13.5883C32.8165 13.4913 32.0224 13.5944 31.4142 14.0459C31.063 14.3273 30.7627 14.7143 30.7033 15.1745C30.8784 15.2047 31.052 15.2429 31.2257 15.281C31.4518 15.3308 31.6781 15.3805 31.9075 15.4127C32.0068 15.0109 32.3524 14.6915 32.758 14.6254C33.0205 14.5797 33.2936 14.5934 33.5491 14.6717C33.7723 14.7448 33.9421 14.9911 33.8444 15.2258C33.6623 15.3931 33.4146 15.4437 33.1786 15.4919L33.1786 15.4919C33.1481 15.4981 33.1179 15.5043 33.0881 15.5107L32.9652 15.5283C32.3663 15.6136 31.7436 15.7022 31.2338 16.0511C30.6035 16.4955 30.601 17.5412 31.184 18.0268C31.6652 18.4438 32.3428 18.4915 32.9465 18.4108C33.3642 18.332 33.7849 18.1497 34.0514 17.8028C34.0529 17.8884 34.0529 17.974 34.0529 18.0596C34.0529 18.1452 34.0529 18.231 34.0545 18.3168C34.1464 18.3167 34.2384 18.3164 34.3305 18.3161C34.6221 18.3151 34.9141 18.3142 35.2063 18.3188C35.2074 17.7451 35.2073 17.1715 35.2071 16.598C35.207 16.1678 35.2069 15.7377 35.2073 15.3075C35.2118 14.9586 35.0854 14.6188 34.8949 14.3314C34.5855 13.8936 34.0605 13.6726 33.5496 13.5883ZM31.9634 17.0643C31.8969 16.9054 32.0254 16.7484 32.1539 16.6702C32.413 16.5262 32.7047 16.4725 32.9958 16.4189C33.3466 16.3543 33.6966 16.2899 33.988 16.0678C33.9852 16.1376 33.9874 16.2105 33.9896 16.2845V16.2846C33.9972 16.5346 34.0051 16.796 33.8232 16.9826C33.4715 17.3361 32.9359 17.4011 32.4628 17.3706C32.2663 17.3589 32.0078 17.2903 31.9634 17.0643ZM35.7135 13.6919C35.578 13.6922 35.4425 13.6924 35.3071 13.6924C35.6645 14.4453 36.0299 15.1943 36.3952 15.9434C36.738 16.6462 37.0809 17.3491 37.4172 18.0552C37.2519 18.4216 37.0722 18.7813 36.8924 19.141C36.7024 19.5212 36.5124 19.9014 36.3395 20.2894C36.485 20.2888 36.6307 20.2899 36.7764 20.2911C37.1002 20.2936 37.4242 20.2961 37.7478 20.2793C38.8094 18.0862 39.87 15.8931 40.9296 13.699C40.4535 13.6869 39.9779 13.6889 39.5022 13.697C39.0457 14.7072 38.5837 15.7154 38.1191 16.7215C37.9821 16.4233 37.8437 16.1258 37.7052 15.8283C37.4791 15.3424 37.253 14.8565 37.0333 14.3679C36.9981 14.2884 36.9593 14.2104 36.9206 14.1325C36.8495 13.9894 36.7784 13.8465 36.7295 13.694C36.3908 13.6907 36.0521 13.6913 35.7135 13.6919Z" fill="#010101"/>
</svg>
