<svg width="45" height="33" viewBox="0 0 45 33" fill="none" xmlns="http://www.w3.org/2000/svg">
<rect width="45" height="32.4" rx="4" fill="#E82529"/>
<path fill-rule="evenodd" clip-rule="evenodd" d="M19.9293 5.20837C20.1556 5.16148 20.4054 5.17645 20.6036 5.30514C20.8675 5.46675 21.011 5.7883 20.9853 6.09489C20.9388 6.64856 20.4971 7.14802 19.9518 7.24412C19.6994 7.291 19.4239 7.23447 19.2243 7.06721C19.0271 6.9076 18.9169 6.64856 18.9334 6.3945C18.9769 5.84483 19.3777 5.31378 19.9293 5.20837ZM28.2765 5.50931C28.4716 5.49239 28.6684 5.49493 28.8652 5.49747C28.9856 5.49902 29.106 5.50057 29.226 5.49767C29.3303 5.49836 29.4347 5.49797 29.5391 5.49758C29.6874 5.49702 29.8357 5.49646 29.9841 5.499C30.0517 5.49202 30.1111 5.55952 30.0939 5.62669C29.9019 7.03354 29.7084 8.44028 29.5149 9.84698L29.5144 9.85094L29.5139 9.85466L29.5126 9.86393C29.3622 10.9576 29.2117 12.0512 29.062 13.1449L29.0615 13.1483C29.0537 13.1992 29.0443 13.2604 28.9908 13.2835C28.9427 13.2962 28.8931 13.2957 28.8439 13.2952C28.8272 13.295 28.8106 13.2948 28.7941 13.2952C28.5464 13.294 28.2986 13.2942 28.0509 13.2945C27.8032 13.2947 27.5555 13.295 27.308 13.2938C27.2268 13.3061 27.1579 13.225 27.181 13.1462C27.3869 11.6384 27.5943 10.1309 27.8016 8.62336L27.803 8.61353L27.8043 8.60385C27.9408 7.61103 28.0774 6.61822 28.2135 5.62536C28.2191 5.58114 28.2304 5.52793 28.2765 5.50931ZM14.0952 5.79675C13.851 5.79421 13.6069 5.79167 13.3642 5.80859C13.285 5.83286 13.2329 5.91134 13.2279 5.99281C13.0885 7.04577 12.9496 8.09883 12.8107 9.15194C12.7024 9.97257 12.5942 10.7932 12.4857 11.6139C12.454 11.838 12.4787 12.0715 12.5645 12.2813C12.8291 12.9317 13.5298 13.3344 14.2136 13.3314L14.5266 13.3316H14.5275C15.4684 13.3322 16.4094 13.3329 17.3502 13.3311C17.436 13.3361 17.5125 13.2636 17.5165 13.1778L17.5691 12.8215C17.6236 12.453 17.6781 12.0842 17.7293 11.7153C17.7481 11.6272 17.6623 11.5524 17.5782 11.5653C17.221 11.565 16.8638 11.5652 16.5067 11.5654C15.9411 11.5657 15.3756 11.566 14.8101 11.564C14.6135 11.573 14.4436 11.3768 14.4818 11.1816C14.6032 10.3228 14.7268 9.46416 14.8503 8.60557L14.8503 8.60529L14.8504 8.60501L14.8505 8.60388L14.8507 8.60299L14.8507 8.60269L14.8509 8.60154L14.851 8.60068L14.851 8.6004L14.8512 8.59929L14.8513 8.59846L14.8514 8.59822C14.9746 7.74192 15.0978 6.88561 15.2188 6.02905C15.2403 5.91965 15.1528 5.80559 15.0427 5.80061C14.9399 5.79465 14.8369 5.79567 14.7339 5.7967C14.6702 5.79733 14.6065 5.79796 14.5429 5.79695C14.3939 5.79985 14.2445 5.7983 14.0952 5.79675ZM22.7529 7.61855C23.3345 7.55304 23.9207 7.54838 24.5056 7.54439C25.0492 7.54772 25.6209 7.67242 26.0452 8.03421C26.4331 8.35876 26.6442 8.85755 26.6871 9.35668C26.7177 9.63442 26.6804 9.91076 26.6432 10.1862L26.6432 10.1862C26.6325 10.2649 26.6219 10.3435 26.6129 10.4221C26.5144 11.1698 26.4035 11.9157 26.2927 12.6615L26.2927 12.6616L26.2256 13.1136C26.2223 13.2157 26.127 13.2925 26.0277 13.2789C25.831 13.2782 25.6343 13.2785 25.4377 13.2789H25.4374C25.1374 13.2794 24.8373 13.2799 24.5372 13.2769C24.4238 13.2775 24.3426 13.1548 24.372 13.0478L24.4196 12.7101C24.5025 12.1228 24.5853 11.5354 24.6745 10.9488C24.6878 10.8555 24.7025 10.7623 24.7172 10.669C24.7633 10.3761 24.8095 10.0828 24.813 9.78564L24.8127 9.76938C24.8093 9.59908 24.8054 9.4074 24.6811 9.27754C24.5405 9.13289 24.336 9.07669 24.1424 9.05241C23.8916 9.02215 23.6386 9.04743 23.3909 9.08833L23.1871 10.5361L23.1866 10.5396L23.1863 10.5419C23.0591 11.4452 22.9319 12.3485 22.805 13.2519C22.5117 12.9992 22.1267 12.8363 21.7361 12.8795C21.4485 12.8891 21.1892 13.0271 20.9503 13.1764L21.0583 12.4281C21.2043 11.4146 21.3503 10.4013 21.5022 9.3886C21.5168 9.30008 21.5304 9.21131 21.5439 9.12252C21.5821 8.87241 21.6203 8.62212 21.6824 8.37671C21.7325 8.18651 21.8117 7.98898 21.9743 7.86828C22.1958 7.69837 22.4814 7.65744 22.7496 7.61901L22.7529 7.61855ZM19.0171 7.68498C18.9684 7.68476 18.9195 7.68454 18.8727 7.69835C18.7942 7.72595 18.748 7.80576 18.7424 7.88623C18.6464 8.58153 18.5498 9.27677 18.4532 9.97202C18.3077 11.0188 18.1622 12.0656 18.0189 13.1126C17.9962 13.2037 18.0806 13.2908 18.171 13.2782C18.678 13.2792 19.1851 13.2795 19.6921 13.2782C19.8168 13.2855 19.9174 13.1725 19.9201 13.0511C20.0228 12.312 20.1261 11.5731 20.2295 10.8341L20.2298 10.8316L20.2299 10.8309L20.23 10.8302C20.3655 9.8617 20.5009 8.89319 20.635 7.92447C20.6604 7.81008 20.5687 7.68671 20.4509 7.68771C20.1963 7.68441 19.9418 7.68495 19.6873 7.68549C19.4796 7.68592 19.272 7.68636 19.0644 7.68472C19.0487 7.68513 19.0329 7.68505 19.0171 7.68498ZM31.4969 7.85398C31.5606 7.77384 31.6596 7.72629 31.7618 7.73061C31.9356 7.73071 32.1095 7.73042 32.2833 7.73013H32.2833H32.2834H32.2834H32.2834H32.2834H32.2835H32.2835C32.6603 7.72949 33.0372 7.72886 33.4139 7.73227C33.5363 7.72861 33.5894 7.89953 33.4977 7.97535C33.0037 8.52779 32.5087 9.07924 32.0136 9.63077L32.0135 9.63084L32.0134 9.6309L31.5758 10.1185L32.0714 11.1889L32.0716 11.1892L32.0717 11.1896L32.0719 11.1899L32.072 11.1902L32.0722 11.1905L32.0723 11.1909L32.0725 11.1912C32.4941 12.1015 32.9157 13.0119 33.3361 13.923C33.4176 14.057 33.3067 14.2482 33.1503 14.2375C32.6545 14.2395 32.1584 14.2392 31.6625 14.2379C31.5665 14.2452 31.4867 14.1757 31.4544 14.0892C31.1247 13.3666 30.7945 12.6442 30.4643 11.9217C30.1815 11.3031 29.8987 10.6844 29.6162 10.0656C29.9559 9.66677 30.2951 9.26762 30.6343 8.86849L30.6358 8.86675C30.9228 8.52908 31.2098 8.19142 31.4969 7.85398ZM22.2861 13.6543C22.0967 13.5396 21.8645 13.5253 21.6514 13.5658C21.0839 13.6639 20.6679 14.2123 20.634 14.7766C20.6261 15 20.7131 15.2258 20.8735 15.3808C21.0628 15.5687 21.3419 15.6498 21.6032 15.6126C22.1746 15.5404 22.6463 15.019 22.6875 14.4437C22.7103 14.1335 22.5576 13.8099 22.2861 13.6543ZM16.2519 14.1608C16.115 14.1598 15.9768 14.1588 15.8446 14.199C15.5899 14.2725 15.3788 14.469 15.2762 14.7144C14.9129 15.526 14.5495 16.3375 14.1861 17.149C13.5409 18.5896 12.8957 20.0302 12.2515 21.4711C12.1888 21.5732 12.2811 21.7115 12.3979 21.6939C12.9162 21.6929 13.4344 21.6892 13.9527 21.6849C14.0609 21.6885 14.1671 21.6237 14.209 21.5223C14.2979 21.3169 14.3848 21.1107 14.4716 20.9044L14.4717 20.9043L14.4717 20.9043C14.5585 20.6981 14.6453 20.4919 14.7342 20.2866C14.7514 20.2228 14.8203 20.2164 14.8754 20.2194C15.1391 20.2201 15.4028 20.2199 15.6666 20.2197H15.6674C16.0195 20.2195 16.3715 20.2192 16.7234 20.2211C16.7766 20.2148 16.827 20.2553 16.8277 20.3102C16.8499 20.5143 16.8692 20.7187 16.8886 20.9231L16.8886 20.9232C16.9061 21.108 16.9236 21.2928 16.9432 21.4774C16.9521 21.6151 17.0791 21.7271 17.2153 21.7201C17.3632 21.7201 17.5112 21.7204 17.6591 21.7206H17.6591H17.6592H17.6592H17.6592H17.6593H17.6593C18.0294 21.7211 18.3995 21.7217 18.7694 21.7188C18.8978 21.7201 18.9964 21.5825 18.9627 21.4591C18.7222 20.0069 18.4805 18.5547 18.2388 17.1025C18.1045 16.2959 17.9702 15.4892 17.8362 14.6825C17.7939 14.3968 17.5343 14.1657 17.247 14.1624C17.0625 14.16 16.8779 14.1605 16.6931 14.161H16.6931H16.6931H16.6931H16.6931H16.6931H16.6931C16.5699 14.1613 16.4467 14.1616 16.3236 14.1611C16.3001 14.1611 16.2764 14.1609 16.2528 14.1608H16.2527H16.2526H16.2525H16.2524H16.2523L16.2519 14.1608ZM15.8343 17.5937L15.8343 17.5937L15.8343 17.5937L15.8343 17.5936L15.8343 17.5936L15.8343 17.5936L15.8343 17.5936C16.0009 17.166 16.1675 16.7385 16.3414 16.3142C16.3767 16.2816 16.4249 16.3232 16.415 16.3661L16.4374 16.6106C16.496 17.2514 16.5546 17.8925 16.6093 18.5335C16.6235 18.602 16.5598 18.6592 16.4945 18.6519C16.3847 18.6516 16.2749 18.6521 16.165 18.6526H16.165H16.1649H16.1649H16.1648H16.1648H16.1648C15.9359 18.6537 15.7068 18.6547 15.4784 18.6482C15.4282 18.6263 15.4484 18.576 15.4649 18.5347C15.4687 18.5252 15.4723 18.5163 15.4748 18.5082C15.5964 18.2043 15.7153 17.8992 15.8341 17.594L15.8342 17.594L15.8342 17.594L15.8342 17.5939L15.8342 17.5939L15.8342 17.5939L15.8343 17.5937ZM29.9992 15.074C29.9203 15.073 29.841 15.072 29.7644 15.0915C29.667 15.1151 29.5921 15.2032 29.5902 15.3053C29.4971 16.2667 29.4055 17.2284 29.314 18.1901C29.2682 18.6707 29.2224 19.1513 29.1765 19.6318C29.1517 19.7416 29.2395 19.8603 29.354 19.855C29.6186 19.8572 29.8835 19.8567 30.1484 19.8561H30.1484H30.1484H30.1485H30.1485L30.4136 19.8556C30.5083 19.8643 30.597 19.7908 30.6082 19.6957C30.8884 18.3047 31.1673 16.9131 31.4462 15.5218L31.4834 15.3362C31.5095 15.2398 31.4897 15.0925 31.3686 15.0795C31.1108 15.0721 30.8527 15.0733 30.5944 15.0744H30.5944H30.5944H30.5943H30.5943C30.4233 15.0752 30.2523 15.0759 30.0814 15.0742C30.0541 15.0747 30.0267 15.0744 29.9992 15.074ZM27.8411 16.1908C27.1457 15.9996 26.4216 15.9102 25.7011 15.9487C25.0618 15.9727 24.3987 16.1117 23.8771 16.5054C23.3645 16.8812 23.0392 17.4644 22.87 18.071C22.7113 18.6456 22.6476 19.2474 22.6701 19.8433C22.6948 20.3647 22.833 20.9217 23.2256 21.2888C23.6393 21.6782 24.2225 21.7913 24.7678 21.8395C25.6625 21.9243 26.576 21.7946 27.4106 21.4594C27.5227 21.4189 27.6339 21.3547 27.6923 21.2453C27.7444 21.1489 27.7551 21.0399 27.7658 20.9315C27.7705 20.884 27.7752 20.8366 27.7834 20.7904C27.8719 20.0864 27.9603 19.3824 28.0486 18.6783L28.0505 18.663C28.1382 17.964 28.2259 17.2651 28.3138 16.5663C28.3254 16.4818 28.3277 16.3767 28.2492 16.3235C28.1657 16.27 28.0695 16.2476 27.9737 16.2252C27.929 16.2148 27.8843 16.2044 27.8411 16.1908ZM24.7028 18.6602C24.7616 18.3795 24.8513 18.0942 25.0416 17.8741C25.2317 17.6453 25.5312 17.506 25.8288 17.5346C25.9993 17.5499 26.1679 17.5838 26.3351 17.622L26.1779 18.8561L26.0208 20.0901C25.7453 20.1695 25.4524 20.2281 25.1667 20.1759C24.9245 20.136 24.7385 19.9311 24.6718 19.7C24.5719 19.3602 24.6306 18.9994 24.7028 18.6602ZM21.4431 16.0476C21.1708 16.046 20.8986 16.0445 20.627 16.0552C20.5205 16.0784 20.4456 16.1792 20.4374 16.2863C20.3819 16.6895 20.3272 17.0928 20.2725 17.4961L20.2725 17.4962L20.2724 17.4962C20.1337 18.5194 19.9949 19.5426 19.8432 20.5639C19.8348 20.6161 19.8269 20.6685 19.819 20.7211L19.8189 20.7212C19.7726 21.0279 19.7257 21.3389 19.579 21.6151C19.4487 21.8691 19.2352 22.0733 18.9881 22.2113C18.82 22.3125 18.6388 22.3865 18.4579 22.4604L18.4578 22.4604C18.4081 22.4807 18.3583 22.501 18.3089 22.5219C18.2271 22.5475 18.1763 22.6369 18.2155 22.7191C18.3343 23.0941 18.4557 23.4682 18.5774 23.8423L18.5849 23.8623C18.6168 23.9478 18.659 24.0612 18.7671 24.0502C19.0907 23.9943 19.4041 23.8862 19.7083 23.7632C20.1949 23.5554 20.6696 23.2647 20.98 22.8228C21.2585 22.4131 21.4234 21.9376 21.5431 21.4594C21.6796 20.9132 21.7493 20.3547 21.8189 19.7967L21.8189 19.7967L21.8189 19.7966C21.844 19.5951 21.8692 19.3937 21.8975 19.1929C21.9969 18.4816 22.0892 17.7693 22.1814 17.0569L22.1815 17.0563C22.2137 16.8074 22.2459 16.5584 22.2785 16.3095C22.2897 16.238 22.2936 16.1546 22.2359 16.101C22.1872 16.046 22.1138 16.0466 22.0451 16.0471H22.045C22.0299 16.0472 22.015 16.0473 22.0007 16.0468C21.8149 16.0497 21.629 16.0486 21.4431 16.0476ZM29.5684 20.4479C29.8175 20.3893 30.0926 20.3943 30.3205 20.5217C30.6085 20.674 30.7956 20.9992 30.7774 21.3274C30.7527 21.8003 30.4126 22.2249 29.9768 22.3859C29.666 22.5059 29.2956 22.4903 29.0152 22.3011C28.7908 22.1551 28.6368 21.8977 28.6355 21.6257C28.6424 21.0843 29.0376 20.5643 29.5684 20.4479ZM32.0581 24.533C29.3503 24.4801 26.6403 24.5955 23.9434 24.8399C20.9949 25.1169 18.0546 25.4917 15.138 26.0111C13.7267 26.2671 12.3178 26.5451 10.9286 26.9056C11.1608 27.0336 11.3926 27.1625 11.6244 27.2913C11.8731 27.4296 12.1217 27.5678 12.3709 27.705C12.6542 27.8616 12.995 27.9035 13.3084 27.8264C13.5164 27.7753 13.7242 27.7236 13.9319 27.6719C14.333 27.572 14.734 27.4722 15.136 27.3771C17.7478 26.7503 20.3948 26.2864 23.0504 25.896C25.4494 25.5442 27.8596 25.2716 30.276 25.0787C32.23 24.9244 34.1882 24.818 36.1481 24.792C35.9341 24.7568 35.7184 24.737 35.5027 24.7172C35.4334 24.7108 35.3642 24.7045 35.295 24.6976C34.2185 24.6035 33.1385 24.5553 32.0581 24.533Z" fill="#FEFEFE"/>
</svg>
