<svg width="45" height="33" viewBox="0 0 45 33" fill="none" xmlns="http://www.w3.org/2000/svg">
<rect width="45" height="32.4" rx="4" fill="#003D79"/>
<path fill-rule="evenodd" clip-rule="evenodd" d="M3.25496 17.1594C3.25496 16.5784 3.24481 16.0907 3.21436 15.6559H4.27081L4.32034 16.4029H4.34998C4.58943 16.0082 5.02731 15.5414 5.84411 15.5414C6.48166 15.5414 6.97964 15.9156 7.18843 16.4754H7.20893C7.37855 16.1955 7.57709 15.9882 7.80598 15.8425C8.07517 15.6457 8.38404 15.5414 8.78245 15.5414C9.58899 15.5414 10.4052 16.1117 10.4052 17.7297V20.7056H9.21018V17.9166C9.21018 17.0768 8.93176 16.5784 8.34446 16.5784C7.92545 16.5784 7.61637 16.89 7.48777 17.2531C7.45752 17.3772 7.42768 17.5329 7.42768 17.677V20.7056H6.23227V17.7814C6.23227 17.0768 5.96379 16.5784 5.39598 16.5784C4.93779 16.5784 4.62942 16.9523 4.51959 17.3041C4.46945 17.4293 4.44935 17.5741 4.44935 17.719V20.7056H3.25496V17.1594Z" fill="white"/>
<path fill-rule="evenodd" clip-rule="evenodd" d="M15.061 19.4931C15.061 19.9491 15.0809 20.3943 15.1307 20.7062H14.0249L13.9455 20.1464H13.9152C13.6166 20.5408 13.1087 20.8204 12.4813 20.8204C11.505 20.8204 10.9575 20.0847 10.9575 19.3169C10.9575 18.041 12.0427 17.3986 13.8356 17.4089V17.3256C13.8356 16.9937 13.7059 16.4444 12.8495 16.4444C12.3713 16.4444 11.8731 16.6001 11.5446 16.8175L11.3053 15.9886C11.6645 15.76 12.2925 15.542 13.0587 15.542C14.6131 15.542 15.061 16.5692 15.061 17.6679V19.4931ZM13.8651 18.2385C12.9988 18.2176 12.1724 18.4146 12.1724 19.182C12.1724 19.6793 12.481 19.9079 12.8696 19.9079C13.357 19.9079 13.7161 19.5759 13.8254 19.2131C13.855 19.1198 13.8651 19.0157 13.8651 18.933V18.2385Z" fill="white"/>
<path fill-rule="evenodd" clip-rule="evenodd" d="M15.9082 17.1594C15.9082 16.5784 15.8972 16.0907 15.8682 15.6559H16.9429L17.003 16.4129H17.0324C17.2418 16.0193 17.7696 15.5414 18.5762 15.5414C19.423 15.5414 20.2994 16.1117 20.2994 17.709V20.7056H19.0746V17.8545C19.0746 17.1281 18.8156 16.5784 18.1482 16.5784C17.6602 16.5784 17.3217 16.9414 17.1919 17.3252C17.1527 17.4396 17.1423 17.5955 17.1423 17.7396V20.7056H15.9082V17.1594Z" fill="white"/>
<path fill-rule="evenodd" clip-rule="evenodd" d="M25.6104 13.6271V19.2849C25.6104 19.8032 25.63 20.3642 25.65 20.706H24.5544L24.5053 19.9077H24.485C24.1961 20.4679 23.6075 20.8201 22.9012 20.8201C21.7464 20.8201 20.8298 19.7937 20.8298 18.2383C20.8196 16.5479 21.8355 15.5417 23.0006 15.5417C23.6677 15.5417 24.1462 15.8325 24.365 16.2061H24.3852V13.6271H25.6104ZM24.3855 17.7607C24.3855 17.6581 24.3752 17.5331 24.356 17.4297C24.2463 16.9319 23.8576 16.5273 23.2999 16.5273C22.5131 16.5273 22.0748 17.2535 22.0748 18.1972C22.0748 19.1198 22.5131 19.794 23.2899 19.794C23.7877 19.794 24.2262 19.4415 24.3456 18.8921C24.3752 18.7775 24.3855 18.6532 24.3855 18.5179V17.7607Z" fill="white"/>
<path fill-rule="evenodd" clip-rule="evenodd" d="M26.4761 20.7059H27.7123V15.6565H26.4761V20.7059Z" fill="white"/>
<path fill-rule="evenodd" clip-rule="evenodd" d="M28.5777 17.2838C28.5777 16.5997 28.5673 16.1116 28.5376 15.6558H29.6035L29.6425 16.6199H29.6838C29.9224 15.9044 30.4902 15.6558 31.0079 15.6558C31.1272 15.6558 31.1968 15.6346 31.2967 15.6558V16.7761C31.1968 16.7553 31.0875 16.7346 30.9381 16.7346C30.3506 16.7346 29.9518 17.1283 29.8424 17.6982C29.823 17.8124 29.8029 17.9478 29.8029 18.0936V20.7058H28.5777V17.2838Z" fill="white"/>
<path fill-rule="evenodd" clip-rule="evenodd" d="M31.8647 20.7059H33.0991V15.6565H31.8647V20.7059Z" fill="white"/>
<path fill-rule="evenodd" clip-rule="evenodd" d="M31.5722 9.55145C30.8307 9.99849 29.0818 11.0429 28.429 11.4318C28.0311 11.6428 27.1095 11.735 26.5883 11.0032C26.5789 10.99 25.895 10.1003 25.8671 10.0668C25.8475 10.0431 25.4054 9.36027 24.4202 9.33892C24.2746 9.33533 23.5509 9.33131 22.8447 9.74918C21.9061 10.3075 19.7232 11.6069 19.7232 11.6069C19.7226 11.6069 19.7226 11.6081 19.7215 11.6081C18.8242 12.1426 18.125 12.5588 18.125 12.5588L18.951 13.6151C19.3375 14.1147 20.2089 14.5012 20.9646 14.0495C20.9646 14.0495 23.7568 12.3659 23.7671 12.3611C24.9747 11.6715 25.9065 11.6715 26.5249 11.9281C27.0801 12.1723 27.563 12.7808 27.563 12.7808C27.563 12.7808 28.1942 13.5952 28.3055 13.7377C28.6646 14.1979 29.259 14.0171 29.259 14.0171C29.259 14.0171 29.4793 13.9911 29.8113 13.7859C29.8113 13.7859 32.516 12.1531 32.5177 12.1525C33.3765 11.6279 34.1642 11.53 34.5668 11.5685C35.8277 11.6878 36.2194 12.605 36.7661 13.2448C37.088 13.6211 37.3785 13.8348 37.8228 13.824C38.1147 13.8176 38.4445 13.6333 38.4932 13.6L41.7319 11.6539C41.7319 11.6539 41.3996 11.1328 40.719 10.322C40.1099 9.59858 39.4629 9.92589 38.9471 10.1919C38.7304 10.3035 37.9451 10.8473 37.1672 11.2267C36.6129 11.497 35.8167 11.4157 35.3803 10.8543C35.3542 10.8202 34.6483 9.93033 34.5741 9.82084C34.2892 9.44925 33.7332 9.11646 33.0208 9.11646C32.5876 9.11646 32.096 9.23947 31.5722 9.55145Z" fill="url(#paint0_linear_2715_49283)"/>
<defs>
<linearGradient id="paint0_linear_2715_49283" x1="18.125" y1="14.2495" x2="41.7319" y2="14.2495" gradientUnits="userSpaceOnUse">
<stop stop-color="#FFCA06"/>
<stop offset="0.330844" stop-color="#FBAA18"/>
<stop offset="0.694742" stop-color="#FFC907"/>
<stop offset="1" stop-color="#FAA619"/>
</linearGradient>
</defs>
</svg>
