<svg width="45" height="33" viewBox="0 0 45 33" fill="none" xmlns="http://www.w3.org/2000/svg">
<rect width="45" height="32.4" rx="4" fill="#4C3494"/>
<path fill-rule="evenodd" clip-rule="evenodd" d="M36.7619 12.2861C35.7047 11.3451 34.251 10.9053 32.8528 11.0397C32.5034 11.0718 32.1568 11.1345 31.8205 11.2348C30.5883 11.5921 29.5075 12.4432 28.8623 13.5591C27.9948 15.0308 27.8909 16.9197 28.5605 18.4889C29.0578 19.6711 30.0083 20.6522 31.1737 21.1725C32.4972 21.7634 34.0634 21.7813 35.3987 21.2178C36.0793 20.9291 36.6966 20.4881 37.1915 19.9356C38.0952 18.9406 38.576 17.5828 38.5453 16.2384C38.5374 14.7473 37.8883 13.2609 36.7619 12.2861ZM30.7079 14.1528C31.2048 13.4061 32.0243 12.8854 32.9114 12.7743C33.6149 12.678 34.3525 12.8191 34.962 13.1907C35.5474 13.5409 36.0049 14.0902 36.2784 14.7163C36.8185 15.9655 36.6974 17.5138 35.8818 18.6154C35.4951 19.1373 34.9521 19.5442 34.3356 19.7449C33.5614 19.9991 32.6895 19.9444 31.9562 19.5863C31.3779 19.3059 30.8943 18.8411 30.5737 18.2819C29.8569 17.0264 29.8982 15.3552 30.7079 14.1528ZM14.042 11.5898C13.0879 11.0913 11.9777 10.9247 10.9162 11.0667C9.89289 11.1995 8.90933 11.6469 8.14609 12.3488C7.36317 13.0547 6.81355 14.0124 6.57592 15.0423C6.28912 16.265 6.42131 17.5891 6.97014 18.7197C7.47411 19.7758 8.34988 20.6471 9.40544 21.1392C10.4508 21.6294 11.6558 21.7468 12.781 21.5084C13.8622 21.2816 14.8607 20.6836 15.5803 19.8397C16.2664 19.0426 16.6936 18.0301 16.8136 16.9835C16.9297 16.0076 16.7861 14.9999 16.3915 14.1001C15.9237 13.0258 15.0814 12.1196 14.042 11.5898ZM9.79808 13.3379C10.219 13.0313 10.7183 12.8386 11.2325 12.7719C11.8482 12.6918 12.4891 12.7902 13.0458 13.0706C13.7013 13.393 14.2273 13.9573 14.5369 14.6204C14.8886 15.3596 14.9842 16.2118 14.8516 17.0177C14.7293 17.7529 14.396 18.4624 13.8633 18.9858C13.4054 19.4518 12.7964 19.7623 12.1539 19.8627C11.3671 19.9876 10.5318 19.8159 9.87244 19.3606C9.19142 18.9026 8.71341 18.1717 8.50686 17.3781C8.30306 16.5945 8.32864 15.7474 8.59498 14.982C8.8216 14.3301 9.23784 13.74 9.79808 13.3379ZM17.2886 11.3034L17.2881 11.3034C17.2878 11.682 17.2879 12.0608 17.288 12.4396C17.2881 12.629 17.2881 12.8185 17.2881 13.0079C17.543 13.0085 17.7978 13.0084 18.0526 13.0084C18.1375 13.0083 18.2225 13.0083 18.3075 13.0083C18.9379 14.4702 19.5676 15.9326 20.1972 17.3948C20.6544 18.4565 21.1115 19.5182 21.569 20.5797C21.7818 21.0722 22.2291 21.4565 22.7496 21.5782C22.939 21.6282 23.1343 21.6261 23.329 21.6241C23.3895 21.6235 23.4499 21.6229 23.5101 21.6238C24.1075 20.2055 24.7069 18.7879 25.3062 17.3704C26.0205 15.681 26.7347 13.9918 27.4456 12.3012C27.4637 12.0955 27.4609 11.8878 27.4582 11.6801C27.4565 11.5542 27.4548 11.4284 27.4578 11.303H24.1538C24.1534 11.8717 24.153 12.44 24.1538 13.0083C24.2976 13.0085 24.4414 13.0084 24.5852 13.0084C24.777 13.0083 24.9688 13.0082 25.1606 13.0087C24.8975 13.6582 24.6351 14.308 24.3728 14.9578C23.8639 16.2179 23.3551 17.478 22.8417 18.736C22.4413 17.7802 22.041 16.8245 21.6406 15.8687C21.2413 14.9154 20.842 13.962 20.4426 13.0087C20.6118 13.0081 20.781 13.0082 20.9503 13.0083C21.1197 13.0084 21.289 13.0085 21.4584 13.0079V11.3034C20.0686 11.3026 18.6788 11.303 17.2886 11.3034Z" fill="white"/>
</svg>
