<svg width="45" height="33" viewBox="0 0 45 33" fill="none" xmlns="http://www.w3.org/2000/svg">
<rect width="45" height="32.4" rx="4" fill="white"/>
<mask id="mask0_2715_49337" style="mask-type:alpha" maskUnits="userSpaceOnUse" x="0" y="0" width="45" height="33">
<rect width="45" height="32.4" rx="4" fill="white"/>
</mask>
<g mask="url(#mask0_2715_49337)">
<path fill-rule="evenodd" clip-rule="evenodd" d="M16.0864 9.1945L16.0713 9.48935L21.7303 16.1216L21.9336 16.1542L21.9592 16.1414L22.0585 15.9582L19.645 7.88774L19.2354 7.61194L16.0864 9.1945Z" fill="#0096B8"/>
<path fill-rule="evenodd" clip-rule="evenodd" d="M21.7303 16.1218L21.9333 16.1544L17.7601 9.81146L16.0713 9.4895L21.7303 16.1218Z" fill="#005675"/>
<path fill-rule="evenodd" clip-rule="evenodd" d="M19.2357 7.61194L17.793 9.30868L18.3821 9.566L19.6452 7.88802V7.88774L19.2357 7.61194Z" fill="#0BBBEF"/>
<path fill-rule="evenodd" clip-rule="evenodd" d="M18.3818 9.56624L21.9597 16.1416L22.059 15.9579L19.6458 7.88855L18.3818 9.56624Z" fill="#007290"/>
<path fill-rule="evenodd" clip-rule="evenodd" d="M24.8495 7.62919L22.4292 18.5432L22.5145 18.748L22.5551 18.7662L22.8292 18.6945L28.8343 9.60682L28.8277 9.1327L25.1682 7.4519L24.8495 7.62919Z" fill="#81B73E"/>
<path fill-rule="evenodd" clip-rule="evenodd" d="M26.3967 9.8142L22.5557 18.766L22.8291 18.6943L28.8345 9.60657L26.3967 9.8142Z" fill="#69931D"/>
<path fill-rule="evenodd" clip-rule="evenodd" d="M22.4287 18.5428L22.5143 18.7476L25.7054 9.43465L24.849 7.62964L22.4287 18.5428Z" fill="#277933"/>
<path fill-rule="evenodd" clip-rule="evenodd" d="M28.8273 9.1333L26.2583 9.16647L26.3968 9.81491L28.8343 9.60714L28.8276 9.1333H28.8273Z" fill="#AECC53"/>
<path fill-rule="evenodd" clip-rule="evenodd" d="M24.8491 7.62937L25.7048 9.4341L26.258 9.16648L25.1679 7.45251L24.8491 7.62937Z" fill="#69931D"/>
<path fill-rule="evenodd" clip-rule="evenodd" d="M24.4092 4.53601L19.7247 4.5864L19.5786 4.86658L22.167 12.3198L22.3207 12.4231L22.3252 12.4238L22.4678 12.3415L24.712 4.84964L24.4092 4.53601Z" fill="#E4032E"/>
<path fill-rule="evenodd" clip-rule="evenodd" d="M19.5786 4.86649L22.167 12.3197L22.3199 12.4232L21.3939 5.76886L19.5786 4.86621V4.86649Z" fill="#791B15"/>
<path fill-rule="evenodd" clip-rule="evenodd" d="M22.2744 5.77016L22.325 12.4238L22.4676 12.3409L24.7116 4.84973L22.2744 5.77016Z" fill="#B51227"/>
<path fill-rule="evenodd" clip-rule="evenodd" d="M28.0916 24.6483C28.0953 24.5702 28.0997 24.4456 28.1035 24.2752V20.9975L28.0934 20.6795C28.091 20.6121 28.088 20.5662 28.0847 20.5416C28.0814 20.5161 28.0763 20.4942 28.0693 20.4744C28.0459 20.3936 27.9946 20.3365 27.9176 20.3018C27.8463 20.2701 27.7407 20.2548 27.604 20.2538V20.1426L29.3711 20.142C29.6281 20.1431 29.86 20.1605 30.0671 20.1962C30.2743 20.2308 30.441 20.2792 30.5688 20.3411C30.9379 20.5268 31.1205 20.8393 31.1184 21.2832C31.123 21.9187 30.7285 22.3239 29.912 22.4286L29.7751 22.4521C29.9587 22.4592 30.2068 22.5235 30.3225 22.5522C30.4372 22.5802 30.5495 22.6246 30.6599 22.6853C31.093 22.916 31.3065 23.2845 31.3022 23.795C31.3043 24.4141 31.0194 24.8162 30.4408 25.0065C30.3146 25.0449 30.1559 25.0749 29.9644 25.097C29.772 25.119 29.5637 25.1301 29.3383 25.1306H27.604V25.0189C27.8084 25.0162 27.9488 24.9831 28.011 24.9056C28.0368 24.8795 28.0553 24.8504 28.0674 24.8172C28.0799 24.7836 28.0875 24.7259 28.0916 24.6483ZM28.6353 20.296V22.3759H29.3249C30.1267 22.3708 30.542 22.0182 30.5463 21.3117C30.5521 20.6257 30.1146 20.2909 29.2658 20.296H28.6353ZM30.6847 23.7392C30.6798 23.2549 30.5145 22.9119 30.1845 22.72C30.0842 22.6663 29.9571 22.6246 29.804 22.5948C29.6515 22.5653 29.4828 22.5505 29.2985 22.55H28.6353V24.978H29.2985C29.7791 24.9801 30.1305 24.885 30.3468 24.6861C30.4563 24.59 30.5396 24.4608 30.5974 24.298C30.655 24.1353 30.6836 23.9485 30.6847 23.7392Z" fill="black"/>
<path fill-rule="evenodd" clip-rule="evenodd" d="M33.832 24.9883C33.7961 24.9132 33.7708 24.8238 33.7602 24.5951L33.7568 24.5279L33.7144 24.579C33.6638 24.6386 33.6142 24.6917 33.5661 24.7361C33.5171 24.7809 33.4604 24.8269 33.397 24.8733C33.2576 24.9821 33.1231 25.0586 32.9944 25.103C32.8654 25.1475 32.7203 25.169 32.5584 25.1673C32.2765 25.169 32.0601 25.098 31.9055 24.9586C31.8193 24.8764 31.7511 24.7729 31.7012 24.6472C31.6521 24.5217 31.6265 24.387 31.6255 24.242C31.6285 23.7082 31.9378 23.3642 32.5708 23.2115C32.7381 23.1703 32.915 23.1365 33.1011 23.1104C33.2874 23.0839 33.4993 23.062 33.7356 23.0451L33.7602 22.5797C33.7602 22.4204 33.7532 22.2912 33.7385 22.1932C33.7238 22.0939 33.6995 22.0071 33.6652 21.934C33.5715 21.7401 33.38 21.6473 33.1034 21.6473C32.6596 21.6446 32.4192 21.8687 32.3941 22.3132C32.3918 22.3842 32.3855 22.4343 32.3765 22.4638C32.3681 22.4924 32.3537 22.5133 32.3334 22.5286C32.2891 22.5603 32.2187 22.5782 32.1181 22.5797C31.9003 22.5828 31.8188 22.5144 31.8224 22.399C31.8238 22.2785 31.8617 22.1617 31.9373 22.0493C32.0135 21.9365 32.1192 21.8381 32.2559 21.7549C32.5016 21.6105 32.8162 21.5369 33.202 21.5353C33.6243 21.5369 33.9075 21.6379 34.0621 21.8319C34.1248 21.9132 34.1712 22.0141 34.2012 22.1362C34.2314 22.2576 34.2467 22.4123 34.2465 22.6L34.2459 22.6394L34.2425 22.8216L34.2333 23.3025L34.2267 23.9633L34.2201 24.2833C34.2208 24.4339 34.2267 24.5487 34.2368 24.6773C34.2462 24.8024 34.2885 24.9422 34.3832 24.979C34.4815 25.0177 34.5765 25.0331 34.7571 25.0342C34.8897 25.0317 34.9918 25.0153 35.061 24.9842C35.1398 24.949 35.1885 24.8733 35.2096 24.7662C35.2299 24.662 35.2385 24.5028 35.2366 24.29V22.4245C35.2409 22.1704 35.2131 21.9918 35.1449 21.8983C35.078 21.8075 34.9538 21.7681 34.7832 21.7702V21.6706L35.7229 21.5987V22.3913L35.7719 22.2985C35.9108 22.0366 36.0685 21.8508 36.2444 21.7396C36.4199 21.6283 36.6399 21.5726 36.9049 21.5758C37.3036 21.5696 37.5809 21.711 37.7432 21.9937C37.803 22.0887 37.8461 22.2025 37.872 22.3363C37.8977 22.4699 37.911 22.6405 37.91 22.8486V24.29C37.9076 24.5049 37.916 24.6651 37.9356 24.7693C37.9559 24.8764 38.0035 24.9515 38.0828 24.9857C38.1485 25.0148 38.3011 25.0301 38.4312 25.0335C38.5533 25.0301 38.6475 25.0137 38.7121 24.9842C38.7889 24.9484 38.8357 24.8728 38.8554 24.7662C38.8746 24.6617 38.883 24.5028 38.8804 24.29V20.901C38.883 20.7066 38.8752 20.5627 38.8569 20.4698C38.8376 20.3726 38.7905 20.3064 38.7133 20.2772C38.6463 20.2523 38.5459 20.2406 38.4141 20.24V20.1411L39.3913 20.088C39.379 20.3181 39.3698 20.5528 39.3633 20.7933C39.357 21.0438 39.3538 21.2628 39.3538 21.4502V23.7269L40.4301 22.4776C40.5824 22.299 40.6659 22.1489 40.6672 22.0286C40.6747 21.8611 40.5154 21.7855 40.2533 21.7717V21.6727H41.6524V21.7732C41.5684 21.7834 41.4953 21.7998 41.433 21.8223C41.3654 21.8467 41.2961 21.8819 41.2252 21.9273C41.1534 21.9733 41.093 22.0157 41.0444 22.054C40.9947 22.0932 40.9361 22.1494 40.869 22.2218C40.8018 22.2944 40.7039 22.4041 40.5757 22.5516L40.2205 22.9569L41.1505 24.507C41.2568 24.6907 41.3545 24.8203 41.4442 24.8937C41.5298 24.9643 41.6391 25.0096 41.7707 25.0311V25.1322H40.9199C40.8966 25.0822 40.8643 25.0168 40.8233 24.9367L40.688 24.6749L40.5843 24.4777L39.8962 23.2896L39.3552 23.9312L39.3538 24.29C39.3512 24.5028 39.3595 24.662 39.379 24.7662C39.399 24.8733 39.4463 24.9484 39.5244 24.9842C39.5928 25.0153 39.6941 25.0317 39.8263 25.0342V25.1322H36.9509V25.0342C37.1456 25.0285 37.2795 24.9949 37.333 24.9193C37.3545 24.8902 37.3708 24.857 37.3824 24.8198C37.3936 24.7825 37.4007 24.734 37.404 24.6749C37.4078 24.6283 37.4118 24.5609 37.4161 24.4727C37.421 24.3839 37.4233 24.3231 37.4238 24.2905V22.8905C37.4251 22.5455 37.3901 22.2899 37.3163 22.1274C37.204 21.8718 37.0017 21.7437 36.7147 21.7426C36.3945 21.7416 36.1394 21.9029 35.9503 22.2218C35.8789 22.3424 35.8236 22.4797 35.7835 22.6327C35.744 22.7858 35.7233 22.937 35.7229 23.085V24.29C35.7205 24.5049 35.7289 24.6651 35.7483 24.7693C35.7686 24.8764 35.8163 24.9515 35.8956 24.9857C35.9649 25.0163 36.0678 25.0317 36.2023 25.0342V25.1322H34.788C34.6627 25.1367 34.4235 25.1434 34.3052 25.1418C34.1809 25.1398 34.1211 25.126 34.0079 25.1169C33.9075 25.0856 33.8652 25.0581 33.832 24.9883ZM32.1646 24.221C32.1669 24.4482 32.219 24.6324 32.323 24.7712C32.4273 24.9111 32.5682 24.983 32.7423 24.9861C32.9182 24.9836 33.0847 24.935 33.2398 24.8412C33.3949 24.7468 33.5173 24.6206 33.6058 24.4645C33.6597 24.3649 33.6991 24.2369 33.7237 24.0811C33.7483 23.927 33.7604 23.7347 33.7604 23.5045V23.1471C33.4453 23.1763 33.22 23.2079 33.0565 23.2446C32.8915 23.2814 32.7459 23.334 32.6189 23.4034C32.318 23.5616 32.1669 23.8362 32.1646 24.221Z" fill="black"/>
<path fill-rule="evenodd" clip-rule="evenodd" d="M4.49525 23.0309V24.2717C4.49281 24.4707 4.50364 24.6186 4.52753 24.7152C4.55177 24.8116 4.60374 24.8754 4.68426 24.9065C4.76444 24.9376 4.88808 24.9556 5.05436 24.9586V25.1321H3.21436V24.9586C3.37097 24.9556 3.48692 24.9376 3.56255 24.9065C3.63771 24.8754 3.6863 24.8116 3.70856 24.7152C3.73058 24.6186 3.74072 24.4707 3.73839 24.2717V21.0092C3.74049 20.8101 3.73082 20.6621 3.70949 20.5656C3.68805 20.4686 3.64109 20.4044 3.56931 20.3722C3.49729 20.34 3.3867 20.3212 3.23754 20.3156V20.142H4.99016C5.58096 20.1394 6.01387 20.2498 6.28865 20.4732C6.56354 20.6968 6.69942 21.0485 6.69616 21.5298C6.69825 22.2056 6.44969 22.648 5.95083 22.8573C5.82078 22.9109 5.65484 22.9532 5.45336 22.9838C5.25142 23.0144 5.02721 23.0304 4.78052 23.0309H4.49525ZM4.49512 22.8378H4.7981C5.16202 22.8362 5.42969 22.7455 5.60157 22.5642C5.69491 22.4595 5.76564 22.3218 5.81412 22.1518C5.86213 21.9823 5.8866 21.7884 5.88683 21.57C5.88497 20.7483 5.54505 20.3369 4.86801 20.3358H4.49512V22.8378Z" fill="black"/>
<path fill-rule="evenodd" clip-rule="evenodd" d="M9.65854 23.2403H7.51788C7.51998 23.4823 7.53338 23.6853 7.55785 23.8492C7.58221 24.0126 7.62148 24.1621 7.67531 24.2978C7.85314 24.7368 8.1278 24.9562 8.49953 24.9562C8.70998 24.9548 8.90074 24.8893 9.07216 24.7592C9.24323 24.6292 9.38574 24.4418 9.49913 24.1984L9.65073 24.3045C9.50169 24.6189 9.31955 24.8496 9.10456 24.9971C8.88956 25.1441 8.62736 25.2172 8.31751 25.2156C7.8303 25.2089 7.38201 25.044 7.1014 24.721C6.82057 24.3979 6.67747 23.9549 6.67188 23.3934C6.67747 22.8273 6.81591 22.3798 7.08707 22.05C7.358 21.7204 7.79068 21.552 8.25703 21.5448C8.56712 21.5454 8.8666 21.6203 9.07915 21.7694C9.2917 21.9179 9.44844 22.1359 9.54947 22.4227C9.58244 22.5177 9.60761 22.6263 9.62451 22.7495C9.64153 22.8719 9.65295 23.0357 9.65854 23.2403ZM7.52393 23.0477H8.86309C8.85761 22.8425 8.84736 22.6772 8.83197 22.5521C8.81694 22.4265 8.7927 22.3148 8.76019 22.2163C8.64693 21.8672 8.4733 21.6942 8.23907 21.6972C7.9763 21.6999 7.78041 21.8948 7.65118 22.2826C7.61808 22.3832 7.59175 22.4934 7.57147 22.6129C7.55143 22.7324 7.53546 22.8773 7.52393 23.0477Z" fill="black"/>
<path fill-rule="evenodd" clip-rule="evenodd" d="M9.79568 21.6398L10.9831 21.553C10.9895 21.6787 10.9942 21.7837 10.9975 21.869C11.0007 21.9548 11.0022 22.0297 11.0022 22.0951V22.2957C11.2602 21.796 11.5718 21.5439 11.937 21.5398C12.0948 21.5429 12.2231 21.5918 12.3215 21.6857C12.4201 21.7801 12.4709 21.9011 12.4738 22.0482C12.4716 22.1706 12.4289 22.2686 12.3459 22.3426C12.2631 22.416 12.154 22.4544 12.0192 22.4559C11.857 22.4614 11.758 22.3906 11.7223 22.2421C11.6988 22.1501 11.6747 22.0879 11.6496 22.0547C11.6246 22.0215 11.5879 22.0062 11.539 22.0078H11.5265C11.4022 22.0189 11.2843 22.1236 11.1726 22.3227C11.1223 22.4217 11.0844 22.5309 11.0591 22.6508C11.0338 22.7707 11.0212 22.9091 11.0212 23.0654V24.303C11.0187 24.5006 11.0279 24.646 11.0484 24.7399C11.0688 24.8332 11.1154 24.8945 11.1876 24.9237C11.2602 24.9522 11.3729 24.9685 11.5265 24.9721V25.1324H9.77051V24.9721C9.91361 24.9726 10.0198 24.9579 10.0885 24.9278C10.1577 24.8977 10.2023 24.8348 10.2228 24.7399C10.2435 24.6439 10.2526 24.4985 10.2507 24.303V22.4493C10.2563 22.1736 10.2305 21.9945 10.1724 21.9118C10.1144 21.8291 9.98889 21.7918 9.79568 21.8006V21.6398Z" fill="black"/>
<path fill-rule="evenodd" clip-rule="evenodd" d="M13.8846 21.553L13.891 22.2155C14.1468 21.7695 14.5131 21.5444 14.9901 21.5398C15.4751 21.5367 15.7742 21.7705 15.8869 22.2426C16.0239 21.9991 16.1808 21.821 16.3566 21.7082C16.5325 21.5944 16.738 21.5382 16.9732 21.5398C17.3449 21.5418 17.6186 21.6715 17.7945 21.9276C17.863 22.0251 17.9122 22.1435 17.9412 22.284C17.9706 22.4247 17.9848 22.607 17.984 22.8311V24.303C17.9818 24.4985 17.9911 24.6439 18.0116 24.7393C18.0321 24.8349 18.077 24.8977 18.1457 24.9278C18.2149 24.9579 18.321 24.9726 18.4641 24.9716V25.1325H16.7521V24.9716C16.8891 24.9726 16.9907 24.9579 17.057 24.9278C17.1234 24.8977 17.1666 24.8349 17.1862 24.7393C17.2065 24.6439 17.2153 24.4985 17.2135 24.303V22.8377C17.215 22.4862 17.174 22.2324 17.0911 22.0767C17.008 21.9206 16.874 21.8445 16.689 21.8475C16.4669 21.843 16.2794 21.9655 16.1269 22.2155C15.9955 22.4238 15.93 22.6495 15.9309 22.8914V24.303C15.9291 24.4985 15.9381 24.6439 15.9581 24.7393C15.9784 24.8349 16.0221 24.8977 16.0892 24.9278C16.1565 24.9579 16.2594 24.9726 16.3986 24.9716V25.1325H14.7056V24.9716C14.8424 24.9726 14.9442 24.9579 15.0106 24.9278C15.0769 24.8977 15.12 24.8349 15.1397 24.7393C15.1597 24.6439 15.169 24.4985 15.1666 24.303V22.8311C15.1699 22.1686 14.9994 21.8409 14.6551 21.8475C14.4409 21.8557 14.2612 21.9634 14.1167 22.1702C13.9718 22.3774 13.8966 22.6356 13.891 22.9448V24.303C13.889 24.5006 13.8978 24.6475 13.9179 24.7426C13.9378 24.8378 13.9808 24.9002 14.0471 24.9293C14.1135 24.9584 14.215 24.9726 14.3521 24.9716V25.1325H12.6401V24.9716C12.7835 24.9726 12.8892 24.9584 12.9584 24.9293C13.0272 24.9002 13.0721 24.8378 13.0926 24.7426C13.1132 24.6475 13.1225 24.5006 13.1201 24.303V22.4432C13.1269 22.1707 13.101 21.9945 13.0427 21.9139C12.9847 21.8328 12.8548 21.7956 12.653 21.8006V21.6398L13.8846 21.553Z" fill="black"/>
<path fill-rule="evenodd" clip-rule="evenodd" d="M22.9544 21.8591V24.0936C22.9542 24.239 22.9593 24.3595 22.9695 24.4549C22.9796 24.5503 22.9957 24.6304 23.0176 24.6957C23.0441 24.7704 23.0856 24.83 23.1413 24.8751C23.1974 24.9194 23.2594 24.9423 23.3269 24.9433C23.4619 24.9413 23.6092 24.8718 23.7693 24.7362L23.8576 24.903C23.604 25.1286 23.3157 25.2399 22.9924 25.2378C22.6438 25.2323 22.406 25.1092 22.2784 24.8699C22.2535 24.8168 22.234 24.7566 22.2202 24.6882C22.2066 24.6203 22.1969 24.529 22.1915 24.4131C22.1861 24.2977 22.1835 24.142 22.1837 23.9465V21.8591H21.8237V21.6585C21.9615 21.6528 22.0779 21.6222 22.1736 21.5666C22.2693 21.5105 22.3527 21.4233 22.424 21.3038C22.4798 21.2129 22.5259 21.1118 22.5619 21.0011C22.5982 20.8903 22.63 20.7525 22.6576 20.5876L22.9735 20.5546C22.9693 20.6428 22.9655 20.7327 22.9628 20.824C22.9601 20.9149 22.9579 21.0246 22.9566 21.1526C22.9551 21.2807 22.9544 21.4451 22.9544 21.6447H23.7189V21.8591H22.9544Z" fill="black"/>
<path fill-rule="evenodd" clip-rule="evenodd" d="M21.8208 24.9908V25.1321C21.6361 25.1449 21.5614 25.1449 21.3671 25.1449C21.213 25.1449 21.0533 25.1422 20.9208 25.0897C20.8389 25.057 20.7932 25.029 20.732 24.9611C20.6894 24.8892 20.6622 24.885 20.6486 24.6855C20.4855 24.8723 20.3158 25.009 20.1395 25.0974C19.9627 25.1852 19.7725 25.2286 19.5686 25.2276C19.2654 25.224 19.0283 25.1357 18.857 24.9616C18.6858 24.7876 18.599 24.5483 18.5957 24.244C18.5947 23.6698 18.9315 23.313 19.6063 23.1736C19.9106 23.1109 20.2558 23.0686 20.6423 23.0461V22.6113C20.6455 22.2631 20.6106 22.0218 20.5381 21.8875C20.4653 21.7532 20.3358 21.689 20.1496 21.6952C19.9516 21.6905 19.8106 21.7666 19.7264 21.9223C19.6959 21.9764 19.6734 22.0376 19.6593 22.1076C19.6453 22.177 19.6339 22.2734 19.6254 22.3974C19.6204 22.5169 19.5877 22.6016 19.5274 22.6517C19.4671 22.7021 19.3713 22.7266 19.24 22.7256C18.9473 22.7231 18.8 22.6204 18.7979 22.4178C18.7988 22.2994 18.8334 22.1861 18.9015 22.079C18.9693 21.9712 19.0654 21.8768 19.1897 21.7952C19.4526 21.6238 19.7979 21.539 20.2256 21.5411C20.6603 21.539 20.9719 21.6303 21.1603 21.8156C21.2452 21.9004 21.3076 22.0085 21.3474 22.1397C21.3874 22.2714 21.407 22.4399 21.4065 22.6455L21.4001 23.2273L21.3939 23.8092C21.3888 24.0001 21.3865 24.1205 21.3876 24.1705C21.3853 24.412 21.3925 24.588 21.4091 24.6989C21.4258 24.8101 21.4439 24.8591 21.5127 24.9193C21.6333 24.9924 21.7368 24.9903 21.8208 24.9908ZM20.6426 23.7157V23.2008C20.1903 23.233 19.8695 23.3216 19.68 23.4662C19.4909 23.6111 19.3988 23.8367 19.4045 24.1436C19.4064 24.3844 19.453 24.5753 19.5444 24.7166C19.6354 24.8581 19.7595 24.93 19.9161 24.933C20.0446 24.932 20.1633 24.8928 20.2722 24.8151C20.3811 24.7381 20.4665 24.6299 20.5288 24.4916C20.5694 24.4069 20.5985 24.3038 20.6167 24.1812C20.6343 24.0588 20.643 23.9036 20.6426 23.7157Z" fill="black"/>
<path fill-rule="evenodd" clip-rule="evenodd" d="M27.2594 24.9905V25.1318C27.0746 25.1447 27 25.1452 26.8057 25.1452C26.6514 25.1452 26.4921 25.1426 26.3593 25.09C26.2774 25.0574 26.2318 25.0298 26.1708 24.9609C26.128 24.8894 26.1007 24.8852 26.0872 24.6858C25.9241 24.872 25.7544 25.0093 25.578 25.0976C25.4013 25.1849 25.211 25.2288 25.0071 25.2279C24.7039 25.2242 24.4669 25.1354 24.2956 24.9619C24.1244 24.7878 24.0376 24.5485 24.0342 24.2443C24.0332 23.6701 24.3701 23.3134 25.0448 23.174C25.3492 23.1112 25.6944 23.0688 26.0808 23.0464V22.6115C26.0839 22.2635 26.0491 22.0221 25.9766 21.8873C25.9039 21.753 25.7743 21.6893 25.5881 21.6955C25.3902 21.6909 25.2491 21.7669 25.1649 21.9224C25.1343 21.9766 25.1119 22.0379 25.0979 22.1078C25.0839 22.1772 25.0725 22.2736 25.0641 22.3976C25.0589 22.5166 25.0263 22.6013 24.9658 22.6519C24.9057 22.7024 24.8099 22.7268 24.6785 22.7258C24.3859 22.7234 24.2386 22.6208 24.2364 22.4181C24.2373 22.2996 24.2719 22.1863 24.34 22.0792C24.4078 21.9716 24.504 21.877 24.6281 21.7959C24.8911 21.624 25.2365 21.5392 25.6641 21.5413C26.0987 21.5392 26.4105 21.6305 26.5989 21.8158C26.6838 21.9006 26.7462 22.0088 26.7859 22.1399C26.8258 22.2716 26.8456 22.4401 26.845 22.6452L26.8387 23.2276L26.8325 23.8094C26.8274 24.0002 26.8251 24.1207 26.8261 24.1707C26.8239 24.4121 26.8311 24.5883 26.8476 24.6991C26.8643 24.8103 26.8824 24.8594 26.9513 24.9195C27.0718 24.9926 27.1754 24.99 27.2594 24.9905ZM26.0806 23.7161V23.2005C25.6283 23.2332 25.3076 23.3219 25.1181 23.4664C24.9285 23.6114 24.8368 23.8369 24.8425 24.1437C24.8445 24.3847 24.8911 24.5755 24.9824 24.7168C25.0735 24.8583 25.1976 24.9302 25.3541 24.9332C25.4828 24.9322 25.6014 24.8929 25.7103 24.8153C25.8191 24.7383 25.9046 24.63 25.9667 24.4918C26.0075 24.407 26.0366 24.3039 26.0546 24.1814C26.0724 24.0589 26.0811 23.9038 26.0806 23.7161Z" fill="black"/>
</g>
</svg>
