<svg width="247" height="122" viewBox="0 0 247 122" fill="none" xmlns="http://www.w3.org/2000/svg">
<path d="M84.2001 49.0004L79.4 44.2004C75.5 40.3004 69.2 40.3004 65.3 44.2004L2 107.5L14.3 119.8L84.2001 49.0004Z" fill="#9CFFD9"/>
<path d="M153.7 104.7L243.9 14.4999L244.3 3.2998H230.4L134.5 99.5999L139.3 104.6C143.3 108.6 149.8 108.6 153.7 104.7Z" fill="#FFDA00"/>
<path d="M2.09961 107.8L65.9996 43.8999C69.5996 40.2999 75.4996 40.2999 79.0996 43.8999L128.8 93.6C132.4 97.2 138.3 97.2 141.9 93.6L232.5 3" stroke="#0B0033" stroke-width="5" stroke-miterlimit="10"/>
<path d="M14 119.6L77.9 55.6998C81.5 52.0998 87.4 52.0998 91 55.6998L140.7 105.4C144.3 109 150.2 109 153.8 105.4L244.4 14.7998" stroke="#0B0033" stroke-width="5" stroke-miterlimit="10"/>
<path d="M173.199 3.2002H242.199C243.199 3.2002 244.099 4.00022 244.099 5.10022V74.1002" stroke="#FFDA00" stroke-width="5" stroke-miterlimit="10"/>
</svg>
