<svg width="256" height="256" viewBox="0 0 256 256" fill="none" xmlns="http://www.w3.org/2000/svg">
<path d="M128 253C196.925 253 252.8 197.125 252.8 128.2C252.8 59.2752 196.925 3.40039 128 3.40039C59.0751 3.40039 3.2002 59.2752 3.2002 128.2C3.2002 197.125 59.0751 253 128 253Z" fill="#F5F5FA"/>
<path d="M72.6004 146V240.2C64.9004 236.4 57.6004 231.8 50.9004 226.5V156C50.9004 150.5 55.4004 146 60.9004 146H72.6004Z" fill="#5F5566"/>
<path d="M217.2 156V215.7C194.5 238.8 162.9 253.1 128 253.1C108.1 253.1 89.2996 248.5 72.5996 240.2V146H207.1C212.7 146 217.2 150.5 217.2 156Z" fill="#FFDA00" stroke="#0B0033" stroke-miterlimit="10"/>
<path d="M217.2 156V215.7C194.5 238.8 162.9 253.1 128 253.1C108.1 253.1 89.2996 248.5 72.5996 240.2V146H207.1C212.7 146 217.2 150.5 217.2 156Z" stroke="#0B0033" stroke-width="4.4951" stroke-miterlimit="10"/>
<path d="M195.5 146H72.6004H60.9004C55.4004 146 50.9004 150.5 50.9004 156V226.5" stroke="#0B0033" stroke-width="4.4951" stroke-miterlimit="10"/>
<path d="M169.1 74.3003C169.1 97.0003 150.7 128.2 128 128.2C105.3 128.2 86.9004 97.0003 86.9004 74.3003C86.9004 51.6003 105.3 33.2002 128 33.2002C150.7 33.2002 169.1 51.6003 169.1 74.3003Z" fill="#B7B6C2" stroke="#0B0033" stroke-width="4.313" stroke-miterlimit="10"/>
<path d="M191.3 235.9V181.7" stroke="#0B0033" stroke-width="4.4951" stroke-miterlimit="10"/>
<path d="M98.0996 249.5V181.7" stroke="#9CFFD9" stroke-width="4.4951" stroke-miterlimit="10"/>
<path d="M237.7 188C232.1 198.2 225.2 207.4 217.2 215.6C194.5 238.7 162.9 253 128 253C108.1 253 89.3 248.4 72.6 240.1C64.9 236.3 57.6 231.7 50.9 226.4C21.7 203.5 3 167.9 3 128C3 59 59 3 128 3C197 3 253 59 253 128C253 137.9 251.8 147.5 249.7 156.8" stroke="#0B0033" stroke-width="5" stroke-miterlimit="10"/>
</svg>
